<svg xmlns="http://www.w3.org/2000/svg" width="22.434" height="21.536" viewBox="0 0 22.434 21.536">
  <path id="calender_1_" data-name="calender (1)" d="M9.833,3A1.353,1.353,0,0,0,8.487,4.346v.449H5.525A1.583,1.583,0,0,0,4,6.421V22.91a1.583,1.583,0,0,0,1.525,1.626H24.909a1.583,1.583,0,0,0,1.525-1.626V6.421a1.583,1.583,0,0,0-1.525-1.626H21.947V4.346a1.346,1.346,0,0,0-2.692,0v.449H11.179V4.346A1.353,1.353,0,0,0,9.833,3Zm0,.9a.438.438,0,0,1,.449.449V7.038a.449.449,0,1,1-.9,0V4.346A.438.438,0,0,1,9.833,3.9ZM20.6,3.9a.438.438,0,0,1,.449.449V7.038a.449.449,0,1,1-.9,0V4.346A.438.438,0,0,1,20.6,3.9ZM5.525,5.692H8.487V7.038a1.346,1.346,0,1,0,2.692,0V5.692h8.076V7.038a1.346,1.346,0,1,0,2.692,0V5.692h2.962a.674.674,0,0,1,.627.729V22.91a.674.674,0,0,1-.627.729H5.525A.674.674,0,0,1,4.9,22.91V6.421A.674.674,0,0,1,5.525,5.692Zm10.589,4.487a.449.449,0,0,0-.449.449V13.32a.449.449,0,0,0,.449.449h2.692a.449.449,0,0,0,.449-.449V10.627a.449.449,0,0,0-.449-.449Zm4.487,0a.449.449,0,0,0-.449.449V13.32a.449.449,0,0,0,.449.449h2.692a.449.449,0,0,0,.449-.449V10.627a.449.449,0,0,0-.449-.449Zm-4.038.9h1.795v1.795H16.563Zm4.487,0h1.795v1.795H21.05ZM7.141,14.666a.449.449,0,0,0-.449.449v2.692a.449.449,0,0,0,.449.449H9.833a.449.449,0,0,0,.449-.449V15.114a.449.449,0,0,0-.449-.449Zm4.487,0a.449.449,0,0,0-.449.449v2.692a.449.449,0,0,0,.449.449H14.32a.449.449,0,0,0,.449-.449V15.114a.449.449,0,0,0-.449-.449Zm4.487,0a.449.449,0,0,0-.449.449v2.692a.449.449,0,0,0,.449.449h2.692a.449.449,0,0,0,.449-.449V15.114a.449.449,0,0,0-.449-.449Zm4.487,0a.449.449,0,0,0-.449.449v2.692a.449.449,0,0,0,.449.449h2.692a.449.449,0,0,0,.449-.449V15.114a.449.449,0,0,0-.449-.449Zm-13.012.9H9.384v1.795H7.589Zm4.487,0h1.795v1.795H12.076Zm4.487,0h1.795v1.795H16.563Zm4.487,0h1.795v1.795H21.05ZM7.141,19.152a.449.449,0,0,0-.449.449v2.692a.449.449,0,0,0,.449.449H9.833a.449.449,0,0,0,.449-.449V19.6a.449.449,0,0,0-.449-.449Zm4.487,0a.449.449,0,0,0-.449.449v2.692a.449.449,0,0,0,.449.449H14.32a.449.449,0,0,0,.449-.449V19.6a.449.449,0,0,0-.449-.449Zm4.487,0a.449.449,0,0,0-.449.449v2.692a.449.449,0,0,0,.449.449h2.692a.449.449,0,0,0,.449-.449V19.6a.449.449,0,0,0-.449-.449Zm-8.525.9H9.384v1.795H7.589Zm4.487,0h1.795v1.795H12.076Zm4.487,0h1.795v1.795H16.563Z" transform="translate(-4 -3)" fill="#e73352"/>
</svg>
