<svg xmlns="http://www.w3.org/2000/svg" xmlns:xlink="http://www.w3.org/1999/xlink" width="24" height="24" viewBox="0 0 24 24">
  <defs>
    <clipPath id="clip-path">
      <rect id="Rectangle_2915" data-name="Rectangle 2915" width="24" height="24" fill="none" stroke="#707070" stroke-width="1"/>
    </clipPath>
  </defs>
  <g id="Mask_Group_190" data-name="Mask Group 190" clip-path="url(#clip-path)">
    <g id="Group_2472" data-name="Group 2472" transform="translate(1.285 3.544)">
      <path id="Path_15644" data-name="Path 15644" d="M185.14,329.466q-4.387,0-8.774,0a1.763,1.763,0,0,1-1.806-1.3,2.084,2.084,0,0,1-.066-.533q-.005-5.707,0-11.415a1.759,1.759,0,0,1,1.8-1.824q1.32-.014,2.641,0a1.543,1.543,0,0,0,1.189-.491c.476-.494.972-.969,1.452-1.459a2.3,2.3,0,0,1,1.732-.717q1.83.013,3.66,0a2.31,2.31,0,0,1,1.749.727c.469.481.958.943,1.422,1.43a1.587,1.587,0,0,0,1.244.51c.831-.013,1.664.02,2.495-.009a1.838,1.838,0,0,1,1.919,1.91c-.021,3.777-.007,7.554-.009,11.332a1.767,1.767,0,0,1-1.436,1.807,2.543,2.543,0,0,1-.5.033Q189.5,329.467,185.14,329.466Zm0-13.308a5.322,5.322,0,1,0,5.324,5.314A5.337,5.337,0,0,0,185.136,316.158Zm7.1,2.659a.882.882,0,1,0-.894-.876A.883.883,0,0,0,192.241,318.816Z" transform="translate(-174.49 -311.724)" fill="#e73352"/>
      <path id="Path_15645" data-name="Path 15645" d="M253.568,375.762a4.435,4.435,0,1,1-4.439,4.422A4.436,4.436,0,0,1,253.568,375.762Z" transform="translate(-242.921 -370.435)" fill="#e73352"/>
    </g>
  </g>
</svg>
