<svg width="24" height="24" viewBox="0 0 24 24" fill="none" xmlns="http://www.w3.org/2000/svg">
<mask id="mask0_112_84" style="mask-type:alpha" maskUnits="userSpaceOnUse" x="0" y="0" width="24" height="24">
<rect width="24" height="24" fill="#C4C4C4"/>
</mask>
<g mask="url(#mask0_112_84)">
<path d="M15.8198 8.33584C13.2654 8.33584 10.7283 8.33584 8.16533 8.33584C8.20833 8.23264 8.24273 8.15523 8.27713 8.06923C8.92217 6.58994 9.56721 5.11926 10.2122 3.63998C10.4015 3.19275 10.1778 2.76273 9.73062 2.69392C9.4296 2.65092 9.17159 2.80573 9.02538 3.14115C8.62976 4.0528 8.22553 4.96445 7.82991 5.8761C7.50309 6.62435 7.16767 7.37259 6.85805 8.12083C6.78925 8.29284 6.70325 8.35305 6.51403 8.35305C5.16376 8.34445 3.80488 8.33584 2.4546 8.35305C1.52575 8.36165 0.854913 9.21309 1.02692 10.1333C1.10433 10.5548 1.20753 10.9762 1.30214 11.389C1.95578 14.2444 2.60941 17.1083 3.27165 19.9637C3.46086 20.7808 4.01989 21.2452 4.86274 21.2452C9.61881 21.2452 14.3835 21.2452 19.1396 21.2452C19.9824 21.2452 20.55 20.7808 20.7306 19.9637C21.4703 16.7385 22.1927 13.5133 22.9496 10.2968C23.1818 9.3163 22.5797 8.52506 21.8057 8.37025C21.6595 8.34444 21.5047 8.33584 21.3585 8.33584C20.0598 8.33584 18.7611 8.32724 17.4711 8.33584C17.299 8.33584 17.2216 8.27564 17.1614 8.12083C16.4218 6.46954 15.6908 4.80104 14.9683 3.14115C14.8307 2.82293 14.5727 2.65952 14.2889 2.69392C13.8417 2.74553 13.5922 3.19275 13.7728 3.62278C14.1169 4.41402 14.4609 5.21387 14.8135 6.00511C15.1145 6.71035 15.4241 7.41559 15.7338 8.12943C15.7596 8.18964 15.7854 8.25844 15.8198 8.33584ZM17.8151 9.65172C17.8753 9.64312 17.9011 9.63452 17.9355 9.63452C19.0966 9.63452 20.2576 9.63452 21.4187 9.63452C21.6681 9.63452 21.7369 9.72912 21.6767 9.97854C20.9457 13.1693 20.2146 16.3515 19.4922 19.5423C19.3976 19.9551 19.3976 19.9551 18.9589 19.9551C15.8026 19.9551 12.6548 19.9551 9.49841 19.9551C7.96752 19.9551 6.42803 19.9551 4.89714 19.9551C4.69073 19.9551 4.56172 19.8949 4.51012 19.6799C3.77908 16.4633 3.03944 13.2467 2.3084 10.0301C2.23099 9.70332 2.29119 9.63452 2.63521 9.63452C3.73608 9.63452 4.84554 9.63452 5.9464 9.63452C6.01521 9.63452 6.07541 9.64312 6.17001 9.65172C6.10981 9.78073 6.06681 9.88393 6.02381 9.99574C5.8776 10.357 6.01521 10.7182 6.34202 10.8644C6.67744 11.0192 7.03866 10.873 7.21067 10.5032C7.31388 10.2796 7.41709 10.0473 7.51169 9.81513C7.56329 9.68612 7.6235 9.63452 7.77831 9.63452C10.5907 9.64312 13.4116 9.64312 16.224 9.63452C16.3444 9.63452 16.4218 9.66892 16.4648 9.78933C16.5594 10.0387 16.6712 10.2796 16.783 10.5204C16.9464 10.873 17.3076 11.0192 17.6431 10.873C17.9699 10.7268 18.1161 10.357 17.9699 10.0043C17.9183 9.88393 17.8667 9.77213 17.8151 9.65172Z" fill="#757272"/>
<path d="M16.5078 15.4313C16.5078 14.6745 16.5078 13.9176 16.5078 13.1522C16.5078 12.7136 16.2498 12.4297 15.8628 12.4211C15.4758 12.4211 15.2177 12.705 15.2177 13.1436C15.2177 14.6659 15.2177 16.1968 15.2177 17.719C15.2177 18.1491 15.493 18.4501 15.8714 18.4415C16.2412 18.4329 16.5078 18.1405 16.5078 17.7276C16.5078 16.9622 16.5078 16.1968 16.5078 15.4313Z" fill="#757272"/>
<path d="M11.3476 15.4313C11.3476 16.1881 11.3476 16.9449 11.3476 17.7104C11.3476 18.1404 11.6142 18.4414 11.9841 18.45C12.3625 18.45 12.6377 18.149 12.6377 17.7276C12.6377 16.2053 12.6377 14.6744 12.6377 13.1521C12.6377 12.7135 12.3797 12.4297 11.9841 12.4297C11.6056 12.4297 11.3476 12.7135 11.3476 13.1349C11.3476 13.9004 11.3476 14.6658 11.3476 15.4313Z" fill="#757272"/>
<path d="M8.76733 15.4313C8.76733 14.6659 8.76733 13.9004 8.76733 13.135C8.76733 12.7136 8.50932 12.4297 8.1309 12.4211C7.75248 12.4211 7.47726 12.705 7.47726 13.1178C7.47726 14.6573 7.47726 16.1968 7.47726 17.7362C7.47726 18.2351 7.89868 18.5533 8.33731 18.3985C8.60392 18.3039 8.76733 18.0631 8.76733 17.7448C8.76733 16.9794 8.76733 16.2054 8.76733 15.4313Z" fill="#757272"/>
</g>
</svg>
