<svg id="edit" xmlns="http://www.w3.org/2000/svg" width="15.937" height="15.857" viewBox="0 0 15.937 15.857">
  <path id="Path_14511" data-name="Path 14511" d="M14.709,47.578a.4.4,0,0,0-.4.4V51.5a1.192,1.192,0,0,1-1.191,1.191H1.985A1.192,1.192,0,0,1,.794,51.5V41.156a1.192,1.192,0,0,1,1.191-1.191H5.509a.4.4,0,0,0,0-.794H1.985A1.987,1.987,0,0,0,0,41.156V51.5a1.987,1.987,0,0,0,1.985,1.985H13.121A1.987,1.987,0,0,0,15.106,51.5V47.975A.4.4,0,0,0,14.709,47.578Zm0,0" transform="translate(0 -37.627)" fill="#e73352"/>
  <path id="Path_14512" data-name="Path 14512" d="M118.844.784a1.786,1.786,0,0,0-2.526,0l-7.081,7.081a.4.4,0,0,0-.1.175L108.2,11.4a.4.4,0,0,0,.488.489l3.362-.931a.4.4,0,0,0,.175-.1l7.081-7.081a1.788,1.788,0,0,0,0-2.526ZM110.1,8.123l5.8-5.8L117.767,4.2l-5.8,5.8Zm-.373.749,1.493,1.493-2.065.572Zm9.02-5.658-.421.421-1.869-1.869.421-.421a.992.992,0,0,1,1.4,0l.466.466A.994.994,0,0,1,118.749,3.214Zm0,0" transform="translate(-103.896 -0.261)" fill="#e73352"/>
</svg>
