<svg xmlns="http://www.w3.org/2000/svg" width="393.269" height="268.332" viewBox="0 0 393.269 268.332">
  <g id="empty-cart" transform="translate(-46.096 -83.106)">
    <path id="Path_15604" data-name="Path 15604" d="M439.365,237.838V225.013a9.221,9.221,0,0,0-9.221-9.221H397.6a9.221,9.221,0,0,1-9.221-9.221V193.745a9.221,9.221,0,0,1,9.221-9.221h1.028a9.221,9.221,0,0,0,9.221-9.221V162.477a9.221,9.221,0,0,0-9.221-9.221h-290.4A9.221,9.221,0,0,0,99,162.477V175.3a9.221,9.221,0,0,0,9.221,9.221h0a9.221,9.221,0,0,1,9.221,9.221V206.57a9.221,9.221,0,0,1-9.221,9.221H72.558a9.221,9.221,0,0,0-9.221,9.221v12.825a9.221,9.221,0,0,0,9.221,9.221H86.551a9.221,9.221,0,0,1,9.221,9.221v12.825a9.221,9.221,0,0,1-9.221,9.221h-.034a9.221,9.221,0,0,0-9.221,9.221v12.825a9.221,9.221,0,0,0,9.221,9.221h2.024a9.221,9.221,0,0,1,9.221,9.221v12.825a9.221,9.221,0,0,1-9.221,9.221H55.317a9.221,9.221,0,0,0-9.221,9.221V362.91a9.221,9.221,0,0,0,9.221,9.221H403.573a9.221,9.221,0,0,0,9.221-9.221V350.085a9.221,9.221,0,0,0-9.221-9.221h-8a9.221,9.221,0,0,1-9.221-9.221V318.817a9.221,9.221,0,0,1,9.221-9.221H414.43a9.221,9.221,0,0,0,9.221-9.221V287.549a9.221,9.221,0,0,0-9.221-9.221h-5.719a9.221,9.221,0,0,1-9.221-9.221V256.281a9.221,9.221,0,0,1,9.221-9.221h21.432A9.221,9.221,0,0,0,439.365,237.838Z" transform="translate(0 -20.692)" fill="#f4e7e9"/>
    <circle id="Ellipse_21" data-name="Ellipse 21" cx="122.405" cy="122.405" r="122.405" transform="translate(105.744 106.057)" fill="#dbe8ec"/>
    <path id="Path_15606" data-name="Path 15606" d="M277.306,218.845a90.2,90.2,0,0,1,18.457,3.761c3.015.924,5.969,2.041,8.886,3.245,2.9,1.249,5.758,2.594,8.539,4.09a99.707,99.707,0,0,1,15.729,10.488A91.266,91.266,0,0,1,342.282,253.7a161.55,161.55,0,0,0-14.373-11.967c-2.524-1.811-5.048-3.619-7.692-5.243-2.621-1.657-5.282-3.252-8.029-4.688a129.232,129.232,0,0,0-16.952-7.64,156.8,156.8,0,0,0-17.929-5.318ZM301,158.946a250.3,250.3,0,0,1,22.48,19.122c3.551,3.416,7.019,6.927,10.307,10.617,1.686,1.806,3.22,3.753,4.81,5.648.778.963,1.506,1.97,2.261,2.953l1.123,1.484,1.045,1.547,1.032,1.556c.338.523.706,1.024,1,1.583l1.836,3.277c.552,1.125,1.032,2.288,1.549,3.43l.379.861.306.887.6,1.777a69.865,69.865,0,0,1,2.969,14.6,102.668,102.668,0,0,1-1.613,29.47,123.59,123.59,0,0,0,.83-14.679,114.2,114.2,0,0,0-.856-14.606,73.619,73.619,0,0,0-3.227-14.15l-.607-1.7-.3-.853-.37-.822c-.5-1.09-.969-2.2-1.5-3.274l-1.787-3.138c-.6-1.044-1.332-2.02-1.988-3.035l-1.006-1.513-1.091-1.461c-.734-.969-1.439-1.959-2.2-2.911-1.548-1.883-3.063-3.791-4.692-5.613-3.163-3.722-6.573-7.237-9.964-10.768q-5.151-5.239-10.495-10.3C308.294,165.525,304.647,162.238,301,158.946Z" transform="translate(-68.201 -22.371)" fill="#e06714"/>
    <path id="Path_15607" data-name="Path 15607" d="M352.942,83.106a77.117,77.117,0,0,1,7.193,7.386q3.371,3.91,6.383,8.125a106.349,106.349,0,0,1,10.3,17.945,96.5,96.5,0,0,1,6.485,19.706q.3,1.267.5,2.552c.145.855.307,1.708.439,2.565.217,1.721.5,3.436.621,5.168a82.432,82.432,0,0,1,.363,10.391l-.033,2.6-.022,1.3-.1,1.294-.4,5.175-.1,1.294-.174,1.285-.35,2.569-.351,2.569-.177,1.284-.247,1.272-.989,5.086c-.15.851-.351,1.69-.56,2.527l-.61,2.516c-.746,3.372-1.8,6.662-2.746,9.976a182.356,182.356,0,0,1-16.629,37.7,195.67,195.67,0,0,0,8.418-18.76c2.509-6.373,4.7-12.863,6.629-19.418,3.66-13.15,6.264-26.67,6.333-40.294a80.464,80.464,0,0,0-.3-10.177c-.113-1.694-.38-3.372-.583-5.057-.125-.839-.28-1.674-.418-2.511l-.21-1.256-.254-1.248a100.124,100.124,0,0,0-6.036-19.452c-1.311-3.144-2.807-6.211-4.417-9.218s-3.35-5.944-5.228-8.8A104.784,104.784,0,0,0,352.942,83.106Zm73.918,36.887a10.642,10.642,0,0,1-.148,3.739,24.8,24.8,0,0,1-1.019,3.628,50.823,50.823,0,0,1-3.138,6.851,96.8,96.8,0,0,1-8.5,12.408c-3.075,3.919-6.195,7.8-9.153,11.785a96.476,96.476,0,0,0-8.138,12.325,42.859,42.859,0,0,0-2.875,6.7q-.567,1.735-1.008,3.518c-.134.577-.353,1.229-.536,1.847l-.288.937-.356.889-.721,1.771-.8,1.716c-.521,1.152-1.1,2.265-1.674,3.382-1.144,2.235-2.364,4.422-3.623,6.583-5.006,8.66-10.507,17-16.281,25.136,2.524-4.3,5.092-8.576,7.545-12.913,2.493-4.312,4.937-8.651,7.294-13.025a122.4,122.4,0,0,0,6.387-13.357l.323-.852.252-.853c.165-.578.35-1.107.5-1.746.294-1.234.639-2.461,1.027-3.675a44.572,44.572,0,0,1,2.97-7.045,94.874,94.874,0,0,1,8.417-12.546q4.616-5.928,9.47-11.618a110.59,110.59,0,0,0,8.889-11.891,50.064,50.064,0,0,0,3.506-6.53,25.035,25.035,0,0,0,1.229-3.5A10.5,10.5,0,0,0,426.86,119.993Zm-46.024,96.144c3.4-3.127,6.97-6.051,10.609-8.878s7.367-5.54,11.152-8.173c3.818-2.586,7.683-5.112,11.695-7.412,1.009-.565,2.02-1.129,3.039-1.676s2.071-1.042,3.1-1.561a36.391,36.391,0,0,1,6.5-2.455,60.3,60.3,0,0,0-6,3.368c-1.953,1.192-3.85,2.482-5.77,3.728-1.885,1.307-3.814,2.541-5.689,3.864-1.906,1.273-3.788,2.587-5.678,3.887l-5.679,3.9c-1.911,1.273-3.785,2.6-5.706,3.867C388.6,211.16,384.767,213.709,380.836,216.137Zm41.286,36.513c3.691-3.743,7.419-7.421,11.148-11.091s7.456-7.335,11.11-11.067c1.866-1.828,3.659-3.724,5.481-5.594l2.708-2.826,2.667-2.863c3.523-3.849,6.993-7.741,10.2-11.906a81.807,81.807,0,0,1-8.957,12.988c-1.643,2.061-3.413,4.008-5.16,5.977-.875.982-1.8,1.915-2.7,2.876s-1.814,1.9-2.74,2.836q-2.786,2.791-5.648,5.5c-1.937,1.775-3.85,3.574-5.844,5.285C430.435,246.219,426.386,249.57,422.122,252.651Z" transform="translate(-90.512)" fill="#e06714"/>
    <rect id="Rectangle_2903" data-name="Rectangle 2903" width="217.937" height="9.814" rx="2" transform="translate(132.285 223.209)" fill="#f9ae2b"/>
    <rect id="Rectangle_2904" data-name="Rectangle 2904" width="127.412" height="9.814" rx="2" transform="translate(229.156 213.395)" fill="#409cb5"/>
    <path id="Path_15608" data-name="Path 15608" d="M354.768,396.255h-147.4a6.345,6.345,0,0,1-6.209-5.039l-20.09-95.47h200l-20.09,95.47A6.345,6.345,0,0,1,354.768,396.255Z" transform="translate(-39.813 -62.724)" fill="rgba(231,51,82,0.72)"/>
    <rect id="Rectangle_2905" data-name="Rectangle 2905" width="25.55" height="8.63" rx="1" transform="translate(176.504 333.531)" fill="#f9ae2b"/>
    <rect id="Rectangle_2906" data-name="Rectangle 2906" width="25.55" height="8.63" rx="1" transform="translate(280.454 333.531)" fill="#f9ae2b"/>
    <rect id="Rectangle_2907" data-name="Rectangle 2907" width="7.699" height="66.667" rx="2" transform="translate(238.205 249.943)" fill="#3086a3"/>
    <rect id="Rectangle_2908" data-name="Rectangle 2908" width="7.699" height="66.667" rx="2" transform="translate(270.417 249.759) rotate(9.254)" fill="#3086a3"/>
    <rect id="Rectangle_2909" data-name="Rectangle 2909" width="7.699" height="66.667" rx="2" transform="translate(298.968 249.886) rotate(12.256)" fill="#3086a3"/>
    <rect id="Rectangle_2910" data-name="Rectangle 2910" width="7.699" height="66.667" rx="2" transform="translate(219.312 315.556) rotate(170.746)" fill="#3086a3"/>
    <rect id="Rectangle_2911" data-name="Rectangle 2911" width="7.699" height="66.667" rx="2" transform="translate(194.191 315.033) rotate(167.744)" fill="#3086a3"/>
    <line id="Line_14" data-name="Line 14" x2="22.774" transform="translate(363.54 146.26)" fill="none" stroke="#b9d4db" stroke-linecap="round" stroke-miterlimit="10" stroke-width="3"/>
    <line id="Line_15" data-name="Line 15" x2="22.774" transform="translate(363.54 152.824)" fill="none" stroke="#b9d4db" stroke-linecap="round" stroke-miterlimit="10" stroke-width="3"/>
    <line id="Line_16" data-name="Line 16" x2="22.774" transform="translate(363.54 159.388)" fill="none" stroke="#b9d4db" stroke-linecap="round" stroke-miterlimit="10" stroke-width="3"/>
    <line id="Line_17" data-name="Line 17" x2="22.774" transform="translate(84.04 235.437)" fill="none" stroke="#b9d4db" stroke-linecap="round" stroke-miterlimit="10" stroke-width="3"/>
    <line id="Line_18" data-name="Line 18" x2="22.774" transform="translate(84.04 242.001)" fill="none" stroke="#b9d4db" stroke-linecap="round" stroke-miterlimit="10" stroke-width="3"/>
    <line id="Line_19" data-name="Line 19" x2="22.774" transform="translate(84.04 248.566)" fill="none" stroke="#b9d4db" stroke-linecap="round" stroke-miterlimit="10" stroke-width="3"/>
    <line id="Line_20" data-name="Line 20" x2="22.774" transform="translate(329.868 326.687)" fill="none" stroke="#b9d4db" stroke-linecap="round" stroke-miterlimit="10" stroke-width="3"/>
    <line id="Line_21" data-name="Line 21" x2="22.774" transform="translate(329.868 333.252)" fill="none" stroke="#b9d4db" stroke-linecap="round" stroke-miterlimit="10" stroke-width="3"/>
    <line id="Line_22" data-name="Line 22" x2="22.774" transform="translate(329.868 339.815)" fill="none" stroke="#b9d4db" stroke-linecap="round" stroke-miterlimit="10" stroke-width="3"/>
    <circle id="Ellipse_22" data-name="Ellipse 22" cx="11.582" cy="11.582" r="11.582" transform="translate(103.558 171.826)" fill="#b9d4db"/>
    <circle id="Ellipse_23" data-name="Ellipse 23" cx="6.033" cy="6.033" r="6.033" transform="translate(109.577 153.76)" fill="#b9d4db"/>
    <circle id="Ellipse_24" data-name="Ellipse 24" cx="5.221" cy="5.221" r="5.221" transform="translate(150.571 158.097)" fill="#b9d4db"/>
    <circle id="Ellipse_25" data-name="Ellipse 25" cx="3.48" cy="3.48" r="3.48" transform="translate(133.317 154.764)" fill="#b9d4db"/>
    <circle id="Ellipse_26" data-name="Ellipse 26" cx="8.343" cy="8.343" r="8.343" transform="translate(132.498 168.897)" fill="#b9d4db"/>
    <circle id="Ellipse_27" data-name="Ellipse 27" cx="11.582" cy="11.582" r="11.582" transform="translate(125.781 315.962)" fill="#b9d4db"/>
    <circle id="Ellipse_28" data-name="Ellipse 28" cx="6.033" cy="6.033" r="6.033" transform="translate(106.815 327.219)" fill="#b9d4db"/>
    <circle id="Ellipse_29" data-name="Ellipse 29" cx="8.343" cy="8.343" r="8.343" transform="translate(104.505 300.488)" fill="#b9d4db"/>
    <circle id="Ellipse_30" data-name="Ellipse 30" cx="11.582" cy="11.582" r="11.582" transform="translate(389.683 257.753)" fill="#b9d4db"/>
    <circle id="Ellipse_31" data-name="Ellipse 31" cx="5.221" cy="5.221" r="5.221" transform="translate(373.069 275.696)" fill="#b9d4db"/>
    <circle id="Ellipse_32" data-name="Ellipse 32" cx="8.343" cy="8.343" r="8.343" transform="translate(363.547 252.65)" fill="#b9d4db"/>
  </g>
</svg>
