<svg width="24" height="24" viewBox="0 0 24 24" fill="none" xmlns="http://www.w3.org/2000/svg">
<mask id="mask0_112_98" style="mask-type:alpha" maskUnits="userSpaceOnUse" x="0" y="0" width="24" height="24">
<rect width="24" height="24" fill="#C4C4C4"/>
</mask>
<g mask="url(#mask0_112_98)">
<path d="M16.4666 0.800049H7.13324C5.84712 0.800049 4.79993 1.84633 4.79993 3.13336V22.7333C4.79993 22.9218 4.91381 23.0926 5.08833 23.1636C5.26284 23.2373 5.46353 23.1963 5.59701 23.0628L11.7999 16.8599L18.0028 23.0638C18.0924 23.1524 18.2119 23.2 18.3332 23.2C18.3929 23.2 18.4536 23.1888 18.5115 23.1646C18.686 23.0927 18.7999 22.9219 18.7999 22.7334V3.13341C18.7999 1.84725 17.7527 0.800049 16.4666 0.800049ZM17.8666 21.6059L12.1303 15.8696C12.0388 15.7791 11.9194 15.7333 11.7999 15.7333C11.6804 15.7333 11.561 15.7791 11.4695 15.8705L5.73324 21.6068V3.13336C5.73324 2.36148 6.36136 1.73337 7.13324 1.73337H16.4665C17.2384 1.73337 17.8665 2.36148 17.8665 3.13336V21.6059H17.8666Z" fill="#757272"/>
</g>
</svg>
