<svg xmlns="http://www.w3.org/2000/svg" xmlns:xlink="http://www.w3.org/1999/xlink" width="26.041" height="26.304" viewBox="0 0 26.041 26.304">
  <defs>
    <clipPath id="clip-path">
      <rect id="Rectangle_2916" data-name="Rectangle 2916" width="26.041" height="26.304" transform="translate(0 0)" fill="none" stroke="#707070" stroke-width="1"/>
    </clipPath>
  </defs>
  <g id="Mask_Group_191" data-name="Mask Group 191" clip-path="url(#clip-path)">
    <g id="image" transform="translate(0.667 1.992)">
      <path id="Path_15646" data-name="Path 15646" d="M18.093,184.449a2.316,2.316,0,0,1-.586-.076L1.7,180.141a2.321,2.321,0,0,1-1.627-2.816l1.737-6.663a.766.766,0,0,1,1.483.387l-1.738,6.664a.78.78,0,0,0,.546.947l15.8,4.23a.762.762,0,0,0,.931-.538l.54-2.177a.766.766,0,0,1,1.488.368l-.542,2.187A2.3,2.3,0,0,1,18.093,184.449Zm0,0" transform="translate(0 -161.964)" fill="#e73352"/>
      <path id="Path_15647" data-name="Path 15647" d="M103.462,16.845H87.62a2.3,2.3,0,0,1-2.3-2.3V2.792a2.3,2.3,0,0,1,2.3-2.3h15.842a2.3,2.3,0,0,1,2.3,2.3V14.545A2.3,2.3,0,0,1,103.462,16.845ZM87.62,2.025a.767.767,0,0,0-.767.767V14.545a.767.767,0,0,0,.767.767h15.842a.767.767,0,0,0,.767-.767V2.792a.767.767,0,0,0-.767-.767Zm0,0" transform="translate(-81.233 -0.492)" fill="#e73352"/>
      <path id="Path_15648" data-name="Path 15648" d="M151.364,68.58a2.044,2.044,0,1,1,2.044-2.044A2.046,2.046,0,0,1,151.364,68.58Zm0-2.555a.511.511,0,1,0,.511.511A.511.511,0,0,0,151.364,66.025Zm0,0" transform="translate(-142.167 -61.426)" fill="#e73352"/>
      <path id="Path_15649" data-name="Path 15649" d="M86.52,123.382a.767.767,0,0,1-.542-1.309l4.62-4.62a1.794,1.794,0,0,1,2.535,0l1.236,1.236,3.8-4.556a1.788,1.788,0,0,1,1.366-.645,1.644,1.644,0,0,1,1.37.629l5.088,5.936a.767.767,0,0,1-1.164,1l-5.09-5.938a.306.306,0,0,0-.2-.091.257.257,0,0,0-.2.093l-4.333,5.2a.765.765,0,0,1-.554.275.751.751,0,0,1-.577-.224l-1.829-1.83a.222.222,0,0,0-.367,0l-4.62,4.619A.761.761,0,0,1,86.52,123.382Zm0,0" transform="translate(-81.646 -108.071)" fill="#e73352"/>
    </g>
  </g>
</svg>
