<svg xmlns="http://www.w3.org/2000/svg" width="21.708" height="21.709" viewBox="0 0 21.708 21.709">
  <g id="Group_2471" data-name="Group 2471" transform="translate(-833.496 -412.495)">
    <path id="Path_14519" data-name="Path 14519" d="M844.354,412.495A10.854,10.854,0,1,1,833.5,423.34,10.857,10.857,0,0,1,844.354,412.495Zm9.3,10.86a9.3,9.3,0,1,0-9.305,9.292A9.291,9.291,0,0,0,853.649,423.355Z" fill="#e73352"/>
    <path id="Path_14520" data-name="Path 14520" d="M935.482,513.567c.479,0,.929-.006,1.379,0a.757.757,0,0,1,.729,1.011.711.711,0,0,1-.73.528c-.784,0-1.568,0-2.352,0-.678,0-1.356.012-2.034,0a.76.76,0,0,1-.667-1.082.737.737,0,0,1,.7-.455c.233,0,.466,0,.7,0h.694v-5.157c-.331,0-.667.008-1,0a.763.763,0,0,1-.723-.954.742.742,0,0,1,.7-.581c.628-.009,1.257-.012,1.885,0a.758.758,0,0,1,.721.813c0,.643,0,1.285,0,1.928v3.953Z" transform="translate(-89.91 -86.367)" fill="#e73352"/>
    <path id="Path_14521" data-name="Path 14521" d="M953.245,468.521a1.106,1.106,0,1,1-1.09-1.111A1.092,1.092,0,0,1,953.245,468.521Z" transform="translate(-107.57 -50.258)" fill="#e73352"/>
  </g>
</svg>
