<svg xmlns="http://www.w3.org/2000/svg" width="21.333" height="21.32" viewBox="0 0 21.333 21.32">
  <g id="Group_2562" data-name="Group 2562" transform="translate(-4421.5 -535.506)">
    <path id="Path_15651" data-name="Path 15651" d="M826.09,411.354c0-.809-.009-1.551,0-2.293a.827.827,0,0,1,1.264-.711.785.785,0,0,1,.4.692c.005.86.022,1.722-.006,2.581a2.62,2.62,0,0,1-2.494,2.541c-.914.043-1.832.021-2.747.009a.812.812,0,0,1-.788-.832.822.822,0,0,1,.821-.824c.673-.01,1.346,0,2.019,0h.279c-.119-.185-.213-.348-.322-.5a8.807,8.807,0,0,0-6-3.786,8.971,8.971,0,0,0-8.657,14.174,8.837,8.837,0,0,0,5.412,3.5,8.587,8.587,0,0,0,2.379.172,1.975,1.975,0,0,1,.516.018.812.812,0,0,1,.639.855.826.826,0,0,1-.747.769,10.681,10.681,0,0,1-11.427-8.6,10.609,10.609,0,0,1,7.905-12.347,10.387,10.387,0,0,1,10.522,3.256c.322.342.584.74.873,1.112C825.97,411.185,826.011,411.246,826.09,411.354Z" transform="translate(3615.071 129.079)" fill="#3b3b3b"/>
    <path id="Path_15653" data-name="Path 15653" d="M889.872,448.656c0,1.083,0,2.165,0,3.248a.972.972,0,0,1-.3.727c-1.066,1.064-2.128,2.132-3.2,3.192a.829.829,0,0,1-1.437-.328.81.81,0,0,1,.23-.82c.257-.263.519-.521.779-.781q1.06-1.06,2.122-2.118a.417.417,0,0,0,.136-.326q-.006-3.019,0-6.038a.854.854,0,0,1,.545-.872.831.831,0,0,1,1.119.805c.008.888,0,1.777,0,2.665Z" transform="translate(3543.128 94.187)" fill="#3b3b3b"/>
    <path id="Path_15654" data-name="Path 15654" d="M1037.837,551.229a9.309,9.309,0,0,1,.326-1.068.78.78,0,0,1,.976-.38.79.79,0,0,1,.552.872,6.683,6.683,0,0,1-.269,1.044.8.8,0,0,1-.951.478A.87.87,0,0,1,1037.837,551.229Z" transform="translate(3402.868 -1.894)" fill="#3b3b3b"/>
    <path id="Path_15655" data-name="Path 15655" d="M1014.231,597.221a.957.957,0,0,1-.755-.486.76.76,0,0,1,.039-.846,8.007,8.007,0,0,1,.629-.774.823.823,0,0,1,1.29,1.007,5.554,5.554,0,0,1-.67.818A2.059,2.059,0,0,1,1014.231,597.221Z" transform="translate(3425.141 -43.292)" fill="#3b3b3b"/>
    <path id="Path_15656" data-name="Path 15656" d="M974.351,629.686a.867.867,0,0,1-.808-.649.805.805,0,0,1,.388-.907c.271-.153.55-.3.835-.421a.822.822,0,0,1,1.066.376.813.813,0,0,1-.309,1.087c-.274.161-.564.3-.852.433A1.657,1.657,0,0,1,974.351,629.686Z" transform="translate(3461.899 -73.709)" fill="#3b3b3b"/>
  </g>
</svg>
