<svg width="30" height="30" viewBox="0 0 30 30" fill="none" xmlns="http://www.w3.org/2000/svg">
<mask id="mask0_112_81" style="mask-type:alpha" maskUnits="userSpaceOnUse" x="0" y="0" width="30" height="30">
<rect width="30" height="30" fill="#C4C4C4"/>
</mask>
<g mask="url(#mask0_112_81)">
<path d="M28.2481 13.1786C28.2472 13.178 28.2466 13.1772 28.2459 13.1765L16.823 1.75516C16.3361 1.2681 15.6887 1 15.0002 1C14.3116 1 13.6642 1.2681 13.1771 1.75516L1.76018 13.1707C1.75633 13.1746 1.75227 13.1786 1.74864 13.1825C0.748783 14.188 0.750492 15.8195 1.75355 16.8224C2.21182 17.2809 2.81686 17.5462 3.46399 17.5742C3.49048 17.5767 3.51698 17.578 3.54368 17.578H3.99874V25.9832C3.99874 27.6467 5.3524 29 7.01605 29H11.4851C11.9382 29 12.3055 28.6326 12.3055 28.1797V21.5898C12.3055 20.8308 12.9231 20.2135 13.6822 20.2135H16.3181C17.0772 20.2135 17.6946 20.8308 17.6946 21.5898V28.1797C17.6946 28.6326 18.0619 29 18.515 29H22.9841C24.6479 29 26.0014 27.6467 26.0014 25.9832V17.578H26.4235C27.1119 17.578 27.7592 17.3099 28.2466 16.8226C29.2507 15.8182 29.2511 14.1837 28.2481 13.1786ZM27.0863 15.6627C26.9091 15.8398 26.6737 15.9374 26.4235 15.9374H25.181C24.7278 15.9374 24.3606 16.3046 24.3606 16.7577V25.9832C24.3606 26.742 23.7431 27.3594 22.9841 27.3594H19.3354V21.5898C19.3354 19.9264 17.982 18.5728 16.3181 18.5728H13.6822C12.0183 18.5728 10.6647 19.9264 10.6647 21.5898V27.3594H7.01605C6.25718 27.3594 5.63954 26.742 5.63954 25.9832V16.7577C5.63954 16.3046 5.27228 15.9374 4.81914 15.9374H3.59795C3.58513 15.9365 3.57252 15.9359 3.55949 15.9357C3.31508 15.9314 3.08584 15.8344 2.91407 15.6624C2.54874 15.2971 2.54874 14.7026 2.91407 14.3371C2.91386 14.3373 2.91428 14.3371 2.91407 14.3371L2.91514 14.3361L14.3376 2.91513C14.5145 2.73804 14.7498 2.64062 15.0002 2.64062C15.2503 2.64062 15.4856 2.73804 15.6627 2.91513L27.0826 14.3337C27.0843 14.3354 27.0863 14.3371 27.088 14.3388C27.4514 14.7048 27.4507 15.298 27.0863 15.6627Z" fill="#E73352"/>
</g>
</svg>
