<svg width="142" height="242" viewBox="0 0 142 242" fill="none" xmlns="http://www.w3.org/2000/svg">
<g opacity="0.1">
<mask id="path-1-inside-1_302_100" fill="white">
<path d="M33.6787 59.5707C37.6093 78.2922 47.4296 93.885 59.6569 108.302C59.23 107.406 58.8402 106.491 58.3714 105.619C51.2665 92.4182 44.6032 78.9917 41.4067 64.2317C38.5964 51.8418 39.4249 38.9039 43.7926 26.9738C44.2987 25.6861 45.0628 24.5156 46.038 23.5342C47.5851 48.5673 58.0864 70.0326 70.5061 90.781L71.4623 90.4109C69.1639 85.1134 66.7347 79.864 64.5905 74.4961C59.1289 60.8365 53.7339 47.1189 52.6482 32.2404C51.7019 21.7809 54.4045 11.3162 60.2972 2.62285C61.0633 1.69716 61.8874 0.821121 62.7646 0C62.3193 3.69002 61.3224 6.53865 61.7776 9.1393C63.3814 18.3131 64.1488 27.9681 67.7105 36.3919C73.7125 50.5918 81.5749 64.0071 88.7255 77.721C94.6806 89.1377 100.989 100.394 103.933 113.099C107.525 128.599 107.169 143.719 98.1177 157.418C91.9319 166.78 83.1405 172.13 71.4289 171.187C68.8588 170.809 66.3128 170.283 63.8034 169.611C65.3616 167.967 66.1993 167.071 67.048 166.184C70.854 162.211 71.7768 158.52 68.9541 153.8C64.4239 146.224 59.2461 139.04 54.5358 131.566C48.1575 121.45 41.7855 111.311 35.7329 100.994C28.3738 88.4518 28.1111 75.0575 31.8739 61.3559C32.0963 60.7774 32.3787 60.2237 32.7165 59.704L33.6787 59.5707Z"/>
</mask>
<path d="M33.6787 59.5707C37.6093 78.2922 47.4296 93.885 59.6569 108.302C59.23 107.406 58.8402 106.491 58.3714 105.619C51.2665 92.4182 44.6032 78.9917 41.4067 64.2317C38.5964 51.8418 39.4249 38.9039 43.7926 26.9738C44.2987 25.6861 45.0628 24.5156 46.038 23.5342C47.5851 48.5673 58.0864 70.0326 70.5061 90.781L71.4623 90.4109C69.1639 85.1134 66.7347 79.864 64.5905 74.4961C59.1289 60.8365 53.7339 47.1189 52.6482 32.2404C51.7019 21.7809 54.4045 11.3162 60.2972 2.62285C61.0633 1.69716 61.8874 0.821121 62.7646 0C62.3193 3.69002 61.3224 6.53865 61.7776 9.1393C63.3814 18.3131 64.1488 27.9681 67.7105 36.3919C73.7125 50.5918 81.5749 64.0071 88.7255 77.721C94.6806 89.1377 100.989 100.394 103.933 113.099C107.525 128.599 107.169 143.719 98.1177 157.418C91.9319 166.78 83.1405 172.13 71.4289 171.187C68.8588 170.809 66.3128 170.283 63.8034 169.611C65.3616 167.967 66.1993 167.071 67.048 166.184C70.854 162.211 71.7768 158.52 68.9541 153.8C64.4239 146.224 59.2461 139.04 54.5358 131.566C48.1575 121.45 41.7855 111.311 35.7329 100.994C28.3738 88.4518 28.1111 75.0575 31.8739 61.3559C32.0963 60.7774 32.3787 60.2237 32.7165 59.704L33.6787 59.5707Z" fill="white"/>
<path d="M33.6787 59.5707L131.545 39.0236L112.376 -52.2805L19.9627 -39.4841L33.6787 59.5707ZM59.6569 108.302L-16.6082 172.983L149.929 65.2798L59.6569 108.302ZM58.3714 105.619L146.454 58.2757L146.441 58.2504L146.427 58.2251L58.3714 105.619ZM41.4067 64.2317L139.141 43.0657L139.038 42.5881L138.93 42.1115L41.4067 64.2317ZM43.7926 26.9738L-49.278 -9.60295L-49.7079 -8.50906L-50.112 -7.40537L43.7926 26.9738ZM46.038 23.5342L145.848 17.3659L132.108 -204.957L-24.8969 -46.9515L46.038 23.5342ZM70.5061 90.781L-15.2967 142.141L27.9954 214.465L106.603 184.039L70.5061 90.781ZM71.4623 90.4109L107.559 183.669L204.628 146.096L163.2 50.6094L71.4623 90.4109ZM64.5905 74.4961L157.456 37.4012L157.45 37.3856L157.443 37.3701L64.5905 74.4961ZM52.6482 32.2404L152.383 24.9629L152.32 24.0957L152.241 23.2297L52.6482 32.2404ZM60.2972 2.62285L-16.7431 -61.1329L-19.7936 -57.4467L-22.4783 -53.486L60.2972 2.62285ZM62.7646 0L162.044 11.9826L194.957 -260.714L-5.57322 -73.0064L62.7646 0ZM61.7776 9.1393L160.284 -8.08202L160.282 -8.09264L160.28 -8.10326L61.7776 9.1393ZM67.7105 36.3919L159.821 -2.54079L159.816 -2.55188L67.7105 36.3919ZM88.7255 77.721L0.0550442 123.955L0.0587101 123.962L0.0623779 123.969L88.7255 77.721ZM103.933 113.099L201.353 90.5273L201.351 90.5182L103.933 113.099ZM98.1177 157.418L181.549 212.548L181.55 212.546L98.1177 157.418ZM71.4289 171.187L56.8797 270.123L60.1259 270.6L63.3964 270.863L71.4289 171.187ZM63.8034 169.611L-8.78758 100.832L-124.337 222.786L37.9544 266.213L63.8034 169.611ZM67.048 166.184L-5.16011 97.0031L-5.18159 97.0255L-5.20304 97.048L67.048 166.184ZM68.9541 153.8L-16.8728 205.12L-16.8703 205.124L68.9541 153.8ZM54.5358 131.566L139.136 78.2478L139.131 78.2403L139.126 78.2328L54.5358 131.566ZM35.7329 100.994L121.987 50.3944L121.982 50.3862L35.7329 100.994ZM31.8739 61.3559L-61.4631 25.4643L-63.2428 30.0924L-64.5559 34.8738L31.8739 61.3559ZM32.7165 59.704L19.0004 -39.3509L-26.2453 -33.0858L-51.1344 5.21519L32.7165 59.704ZM-64.1876 80.1178C-55.5059 121.469 -34.4234 151.977 -16.6082 172.983L135.922 43.6211C132.661 39.7758 131.354 37.6717 130.936 36.9211C130.644 36.3963 131.168 37.2268 131.545 39.0236L-64.1876 80.1178ZM149.929 65.2798C150.106 65.6507 150.218 65.8949 150.158 65.7653C150.056 65.545 150.169 65.7897 150.01 65.4439C149.935 65.2823 149.821 65.0333 149.687 64.7466C149.207 63.7156 148.047 61.2378 146.454 58.2757L-29.7117 152.962C-30.3043 151.859 -30.7622 150.948 -31.0678 150.325C-31.3679 149.713 -31.5743 149.271 -31.6274 149.157C-31.6561 149.095 -31.6669 149.071 -31.6375 149.135C-31.6225 149.168 -31.6069 149.202 -31.5775 149.266C-31.5518 149.321 -31.5143 149.403 -31.4741 149.49C-31.3261 149.811 -31.0056 150.506 -30.6154 151.324L149.929 65.2798ZM146.427 58.2251C143.26 52.3404 141.462 48.7243 140.255 45.9252C139.131 43.3174 139.03 42.5544 139.141 43.0657L-56.3276 85.3976C-49.9141 115.012 -37.1704 139.104 -29.6845 153.013L146.427 58.2251ZM138.93 42.1115C140.381 48.5098 139.953 55.1914 137.697 61.3529L-50.112 -7.40537C-61.1031 22.6164 -63.1879 55.1738 -56.1161 86.3518L138.93 42.1115ZM136.863 63.5505C132.38 74.9576 125.611 85.3266 116.973 94.0199L-24.8969 -46.9515C-35.4856 -36.2954 -43.7829 -23.5855 -49.278 -9.60295L136.863 63.5505ZM-53.7716 29.7025C-50.7016 79.3787 -29.8439 117.839 -15.2967 142.141L156.309 39.4208C146.017 22.2265 145.872 17.7559 145.848 17.3659L-53.7716 29.7025ZM106.603 184.039L107.559 183.669L35.3651 -2.84674L34.409 -2.47665L106.603 184.039ZM163.2 50.6094C159.584 42.275 158.912 41.0472 157.456 37.4012L-28.2748 111.591C-25.4428 118.681 -21.2564 127.952 -20.2756 130.212L163.2 50.6094ZM157.443 37.3701C156.063 33.9177 155.068 31.4076 154.197 29.0867C153.355 26.844 152.835 25.3174 152.501 24.238C151.828 22.0653 152.215 22.6566 152.383 24.9629L-47.0866 39.5179C-44.7021 72.1967 -32.9665 99.8572 -28.2624 111.622L157.443 37.3701ZM152.241 23.2297C153.376 35.7675 150.136 48.3113 143.073 58.7317L-22.4783 -53.486C-41.3272 -25.679 -49.972 7.79432 -46.945 41.2512L152.241 23.2297ZM137.338 66.3786C135.401 68.718 133.319 70.9317 131.102 73.0064L-5.57322 -73.0064C-9.54406 -69.2895 -13.2749 -65.3237 -16.7431 -61.1329L137.338 66.3786ZM-36.5149 -11.9826C-36.3968 -12.9605 -36.2802 -13.7479 -36.196 -14.28C-36.1539 -14.5464 -36.1185 -14.757 -36.0946 -14.8968C-36.071 -15.0346 -36.0561 -15.1172 -36.0559 -15.1179C-35.8583 -16.2144 -36.4622 -12.9356 -36.7247 -11.3491C-37.3348 -7.66233 -40.0065 7.63354 -36.7246 26.3819L160.28 -8.10326C161.772 0.423615 161.793 7.56788 161.538 12.3978C161.295 17.0196 160.737 20.4239 160.592 21.3054C160.506 21.8239 160.446 22.1384 160.491 21.8948C160.52 21.7368 160.527 21.7013 160.587 21.3726C160.633 21.1241 160.7 20.7634 160.773 20.3559C161.06 18.7619 161.594 15.7144 162.044 11.9826L-36.5149 -11.9826ZM-36.7284 26.3606C-36.5623 27.3105 -36.3956 28.3986 -35.9875 31.0877C-35.647 33.3316 -35.0925 36.9951 -34.3819 40.9092C-32.9925 48.5625 -30.3256 61.3086 -24.3948 75.3356L159.816 -2.55188C161.077 0.430882 161.769 2.75554 162.104 4.00764C162.43 5.22554 162.509 5.77665 162.402 5.18453C162.275 4.48522 162.114 3.48841 161.748 1.07855C161.591 0.0417374 161.37 -1.42015 161.143 -2.87453C160.907 -4.37964 160.62 -6.15743 160.284 -8.08202L-36.7284 26.3606ZM-24.3994 75.3245C-16.3157 94.4498 -4.0004 116.177 0.0550442 123.955L177.396 31.4873C167.15 11.8374 163.741 6.73387 159.821 -2.54079L-24.3994 75.3245ZM0.0623779 123.969C0.887188 125.55 1.74884 127.187 2.426 128.477C3.15174 129.86 3.76071 131.024 4.32606 132.12C5.46562 134.329 6.17066 135.767 6.65677 136.821C7.64192 138.956 7.10182 138.206 6.51617 135.679L201.351 90.5182C194.859 62.514 180.92 38.2439 177.389 31.4733L0.0623779 123.969ZM6.51405 135.67C6.60898 136.08 5.61539 132.214 6.30128 125.607C7.07268 118.177 9.72582 109.797 14.6856 102.29L181.55 212.546C211.172 167.716 208.48 121.288 201.353 90.5273L6.51405 135.67ZM14.6866 102.289C18.7207 96.184 26.4611 87.1112 39.4084 80.1344C53.0285 72.7952 67.346 70.5334 79.4614 71.5098L63.3964 270.863C117.545 275.227 158.893 246.834 181.549 212.548L14.6866 102.289ZM85.9781 72.2507C87.2169 72.4329 88.4437 72.6863 89.6524 73.0098L37.9544 266.213C44.1819 267.879 50.5008 269.185 56.8797 270.123L85.9781 72.2507ZM136.394 238.39C138.534 236.132 138.626 236.023 139.299 235.32L-5.20304 97.048C-6.22755 98.1186 -7.81085 99.8013 -8.78758 100.832L136.394 238.39ZM139.256 235.365C148.021 226.217 163.802 206.991 168.974 177.604C174.59 145.689 164.824 119.274 154.779 102.476L-16.8703 205.124C-24.0932 193.046 -32.9089 170.837 -27.9998 142.941C-23.5356 117.572 -10.1186 102.179 -5.16011 97.0031L139.256 235.365ZM154.781 102.48C151.169 96.4388 147.573 91.0103 145.038 87.2052C142.122 82.828 140.625 80.6104 139.136 78.2478L-30.0642 184.884C-18.9905 202.455 -22.4649 195.768 -16.8728 205.12L154.781 102.48ZM139.126 78.2328C132.68 68.0091 127.12 59.1442 121.987 50.3944L-50.5209 151.593C-43.5487 163.478 -36.3654 174.89 -30.0548 184.899L139.126 78.2328ZM121.982 50.3862C126.25 57.6605 128.714 65.914 129.332 73.8608C129.905 81.2371 128.74 86.2492 128.304 87.8381L-64.5559 34.8738C-73.2742 66.6201 -75.2128 109.511 -50.5161 151.601L121.982 50.3862ZM125.211 97.2475C122.93 103.18 120.033 108.86 116.567 114.193L-51.1344 5.21519C-55.2756 11.5879 -58.7369 18.3748 -61.4631 25.4643L125.211 97.2475ZM46.4325 158.759L47.3948 158.626L19.9627 -39.4841L19.0004 -39.3509L46.4325 158.759Z" fill="#E73352" mask="url(#path-1-inside-1_302_100)"/>
<mask id="path-3-inside-2_302_100" fill="white">
<path d="M4.59956 241.385C0.0607528 233.127 -1.40612 225.26 1.5005 216.843C4.29854 208.74 10.3696 203.36 17.9088 198.296C11.8069 196.672 8.30808 201.449 3.06853 201.997C3.70022 198.81 5.04919 195.809 7.01317 193.221C8.97715 190.633 11.5046 188.526 14.4038 187.06C19.8037 184.212 25.8267 182.541 32.6355 179.948L21.8443 176.211C24.1596 174.374 26.6042 172.707 29.1589 171.221C35.7161 168.013 42.5731 168.647 49.3461 170.495C55.4702 172.166 61.4364 175.209 67.6259 175.697C87.5428 177.26 101.09 166.892 106.348 147.508C109.967 134.184 108.816 120.972 106.018 107.738C105.861 106.998 105.713 106.258 105.499 105.203C106.09 105.393 106.548 105.398 106.659 105.596C116.082 122.282 120.9 139.671 114.197 158.61C109.891 170.777 101.283 179.373 90.7567 186.435C78.7033 194.519 64.7255 198.138 51.6729 203.896C42.1733 208.09 32.7268 212.491 23.6764 217.548C15.0976 222.207 8.66965 230.022 5.75431 239.339C5.42139 240.049 5.03537 240.733 4.59956 241.385Z"/>
</mask>
<path d="M4.59956 241.385C0.0607528 233.127 -1.40612 225.26 1.5005 216.843C4.29854 208.74 10.3696 203.36 17.9088 198.296C11.8069 196.672 8.30808 201.449 3.06853 201.997C3.70022 198.81 5.04919 195.809 7.01317 193.221C8.97715 190.633 11.5046 188.526 14.4038 187.06C19.8037 184.212 25.8267 182.541 32.6355 179.948L21.8443 176.211C24.1596 174.374 26.6042 172.707 29.1589 171.221C35.7161 168.013 42.5731 168.647 49.3461 170.495C55.4702 172.166 61.4364 175.209 67.6259 175.697C87.5428 177.26 101.09 166.892 106.348 147.508C109.967 134.184 108.816 120.972 106.018 107.738C105.861 106.998 105.713 106.258 105.499 105.203C106.09 105.393 106.548 105.398 106.659 105.596C116.082 122.282 120.9 139.671 114.197 158.61C109.891 170.777 101.283 179.373 90.7567 186.435C78.7033 194.519 64.7255 198.138 51.6729 203.896C42.1733 208.09 32.7268 212.491 23.6764 217.548C15.0976 222.207 8.66965 230.022 5.75431 239.339C5.42139 240.049 5.03537 240.733 4.59956 241.385Z" fill="white"/>
<path d="M4.59956 241.385L-83.037 289.55L-3.73118 433.848L87.7465 296.943L4.59956 241.385ZM1.5005 216.843L96.0225 249.487L96.0237 249.483L1.5005 216.843ZM17.9088 198.296L73.67 281.306L256.705 158.354L43.6216 101.658L17.9088 198.296ZM3.06853 201.997L-95.0229 182.553L-121.387 315.553L13.4663 301.455L3.06853 201.997ZM14.4038 187.06L59.5263 276.301L60.2978 275.911L61.0626 275.508L14.4038 187.06ZM32.6355 179.948L68.228 273.4L325.329 175.479L65.3579 85.4535L32.6355 179.948ZM21.8443 176.211L-40.3046 97.869L-183.029 211.092L-10.8782 270.706L21.8443 176.211ZM29.1589 171.221L-14.7833 81.3928L-18.0102 82.9714L-21.1156 84.7774L29.1589 171.221ZM49.3461 170.495L23.0225 266.969L23.0311 266.971L49.3461 170.495ZM67.6259 175.697L59.7769 275.388L59.7894 275.389L59.8018 275.39L67.6259 175.697ZM106.348 147.508L9.84365 121.3L9.83979 121.314L9.83593 121.328L106.348 147.508ZM106.018 107.738L203.855 87.0525L203.852 87.0413L203.85 87.0302L106.018 107.738ZM105.499 105.203L136.107 10.002L-26.3587 -42.2312L7.48573 125.035L105.499 105.203ZM106.659 105.596L19.3716 154.391L19.4778 154.581L19.5848 154.77L106.659 105.596ZM114.197 158.61L19.927 125.246L19.9259 125.249L114.197 158.61ZM90.7567 186.435L146.46 269.484L146.469 269.478L90.7567 186.435ZM51.6729 203.896L11.3135 112.402L11.2965 112.409L11.2796 112.417L51.6729 203.896ZM23.6764 217.548L71.399 305.426L71.9281 305.139L72.4537 304.845L23.6764 217.548ZM5.75431 239.339L96.3016 281.779L99.1715 275.656L101.191 269.203L5.75431 239.339ZM92.2361 193.221C94.1301 196.667 97.7352 204.257 99.2801 215.223C100.938 226.991 99.6847 238.883 96.0225 249.487L-93.0215 184.2C-107.602 226.42 -97.0825 263.994 -83.037 289.55L92.2361 193.221ZM96.0237 249.483C87.8788 273.07 71.0465 283.068 73.67 281.306L-37.8524 115.286C-50.3073 123.652 -79.2817 144.41 -93.0227 184.204L96.0237 249.483ZM43.6216 101.658C27.0573 97.2508 10.8291 97.0331 -3.95129 99.6918C-17.5122 102.131 -27.6418 106.641 -31.797 108.562C-32.9267 109.085 -33.8699 109.54 -34.4566 109.826C-34.7538 109.97 -35.0175 110.1 -35.1819 110.18C-35.3907 110.283 -35.433 110.304 -35.5097 110.341C-35.878 110.522 -34.6048 109.885 -32.8048 109.11C-29.0416 107.49 -19.885 103.852 -7.32924 102.539L13.4663 301.455C28.6418 299.868 40.2006 295.427 46.2842 292.808C49.2443 291.534 51.6572 290.349 52.4251 289.973C53.8138 289.293 52.8709 289.758 52.1275 290.102C50.2648 290.963 42.4814 294.549 31.4565 296.533C25.7061 297.567 19.2639 298.146 12.3021 297.907C5.32735 297.668 -1.42156 296.632 -7.80395 294.934L43.6216 101.658ZM101.16 221.441C98.8399 233.145 93.8853 244.168 86.6716 253.674L-72.6453 132.768C-83.7869 147.45 -91.4394 164.475 -95.0229 182.553L101.16 221.441ZM86.6716 253.674C79.4582 263.179 70.1752 270.917 59.5263 276.301L-30.7187 97.8194C-47.1661 106.136 -61.5039 118.087 -72.6453 132.768L86.6716 253.674ZM61.0626 275.508C59.2108 276.485 57.8027 277.099 57.1285 277.381C56.5016 277.643 56.3205 277.694 57.0384 277.434C57.3809 277.31 57.8243 277.152 58.4921 276.917C58.8256 276.8 59.1666 276.68 59.5778 276.536C59.971 276.398 60.4242 276.239 60.8921 276.074C62.7386 275.424 65.333 274.502 68.228 273.4L-2.95699 86.4967C-3.4664 86.6907 -4.17822 86.9502 -5.54473 87.4314C-6.53056 87.7786 -8.98927 88.6347 -11.0558 89.383C-15.4381 90.9699 -23.4111 93.9476 -32.2549 98.6129L61.0626 275.508ZM65.3579 85.4535L54.5667 81.7166L-10.8782 270.706L-0.0869505 274.443L65.3579 85.4535ZM83.9932 254.554C82.5499 255.699 81.0261 256.738 79.4334 257.664L-21.1156 84.7774C-27.8178 88.6753 -34.2307 93.0505 -40.3046 97.869L83.9932 254.554ZM73.1012 261.049C47.6027 273.522 25.7141 267.703 23.0225 266.969L75.6697 74.0223C59.432 69.5917 23.8295 62.5042 -14.7833 81.3928L73.1012 261.049ZM23.0311 266.971C21.2909 266.496 20.3094 266.132 21.057 266.392C21.456 266.531 21.7967 266.652 22.7807 267.001C23.5928 267.289 24.8613 267.738 26.2668 268.216C31.1141 269.864 43.803 274.131 59.7769 275.388L75.4748 76.0053C80.7327 76.4192 84.7932 77.2814 87.1899 77.8784C88.4129 78.183 89.3422 78.4543 89.8938 78.6224C90.4379 78.7882 90.736 78.8912 90.6561 78.864C90.5462 78.8266 90.3004 78.7416 89.5977 78.4925C89.3464 78.4034 88.8039 78.2108 88.4062 78.07C87.944 77.9065 87.3838 77.7091 86.7741 77.4969C85.5683 77.0775 83.9754 76.533 82.1609 75.9513C80.3352 75.3661 78.1375 74.6954 75.6611 74.02L23.0311 266.971ZM59.8018 275.39C89.3374 277.708 122.678 271.448 151.846 249.932C180.475 228.814 195.751 199.897 202.861 173.688L9.83593 121.328C11.6874 114.503 17.5609 100.462 33.1218 88.9831C49.2227 77.1062 65.8313 75.2484 75.4499 76.0033L59.8018 275.39ZM202.853 173.716C212.416 138.502 208.148 107.359 203.855 87.0525L8.18045 128.424C8.80145 131.361 8.6643 131.676 8.62818 130.385C8.58435 128.817 8.70039 125.509 9.84365 121.3L202.853 173.716ZM203.85 87.0302C203.814 86.8588 203.795 86.7638 203.513 85.3708L7.48573 125.035C7.63073 125.751 7.90808 127.137 8.18516 128.446L203.85 87.0302ZM74.8921 200.404C79.4588 201.872 89.0585 204.149 82.337 202.493C81.5147 202.29 73.6947 200.48 64.5086 196.228C55.3823 192.003 33.9342 180.441 19.3716 154.391L193.947 56.8021C179.329 30.6519 157.782 19.015 148.52 14.728C139.198 10.4133 131.206 8.55229 130.182 8.29988C123.056 6.54424 132.131 8.72383 136.107 10.002L74.8921 200.404ZM19.5848 154.77C20.8044 156.93 19.025 154.495 17.9806 148.544C16.7386 141.467 17.174 133.025 19.927 125.246L208.467 191.974C228.649 134.95 210.537 86.1783 193.734 56.4227L19.5848 154.77ZM19.9259 125.249C22.4583 118.093 26.2115 112.382 29.7365 108.376C32.9578 104.715 35.3728 103.172 35.0443 103.392L146.469 269.478C167.005 255.701 194.37 231.81 208.468 191.971L19.9259 125.249ZM35.0534 103.386C37.8301 101.523 39.0513 101.362 34.6703 103.103C32.1296 104.112 30.383 104.747 25.8688 106.473C22.1102 107.911 16.9172 109.93 11.3135 112.402L92.0322 295.389C96.8227 293.276 95.8336 294.008 108.509 288.973C117.393 285.444 131.63 279.431 146.46 269.484L35.0534 103.386ZM11.2796 112.417C0.794048 117.047 -11.983 122.921 -25.101 130.251L72.4537 304.845C77.4367 302.061 83.5526 299.134 92.0661 295.374L11.2796 112.417ZM-24.0463 129.67C-55.4641 146.731 -79.0054 175.355 -89.6823 209.475L101.191 269.203C96.3447 284.69 85.6594 297.682 71.399 305.426L-24.0463 129.67ZM-84.793 196.898C-82.9927 193.057 -80.9051 189.357 -78.5474 185.828L87.7465 296.943C90.9758 292.11 93.8355 287.041 96.3016 281.779L-84.793 196.898Z" fill="#E73352" mask="url(#path-3-inside-2_302_100)"/>
<mask id="path-5-inside-3_302_100" fill="white">
<path d="M109.254 100.944C99.072 81.0103 84.0566 63.7939 77.3218 42.0696C73.2826 29.0355 74.6076 17.2092 82.8895 6.2847C83.4915 5.48896 84.2553 4.81658 85.6629 3.32379C85.1435 7.13224 84.6574 9.95866 84.3848 12.8073C82.9043 28.3076 87.2457 42.6038 93.0109 56.7507C98.5514 70.3486 103.417 84.2241 108.556 97.9861C108.851 98.9563 109.084 99.9445 109.254 100.944Z"/>
</mask>
<path d="M109.254 100.944C99.072 81.0103 84.0566 63.7939 77.3218 42.0696C73.2826 29.0355 74.6076 17.2092 82.8895 6.2847C83.4915 5.48896 84.2553 4.81658 85.6629 3.32379C85.1435 7.13224 84.6574 9.95866 84.3848 12.8073C82.9043 28.3076 87.2457 42.6038 93.0109 56.7507C98.5514 70.3486 103.417 84.2241 108.556 97.9861C108.851 98.9563 109.084 99.9445 109.254 100.944Z" fill="white"/>
<path d="M77.3218 42.0696L-18.1969 71.67L-18.1936 71.6805L77.3218 42.0696ZM82.8895 6.2847L162.578 66.6972L162.608 66.6588L162.637 66.6205L82.8895 6.2847ZM85.6629 3.32379L184.746 16.8365L226.893 -292.207L12.9083 -65.282L85.6629 3.32379ZM84.3848 12.8073L-15.1603 3.27958L-15.1613 3.28952L-15.1622 3.29945L84.3848 12.8073ZM93.0109 56.7507L185.618 19.017L185.617 19.0123L93.0109 56.7507ZM108.556 97.9861L204.213 68.8388L203.316 65.8926L202.238 63.0072L108.556 97.9861ZM198.31 55.4576C193.965 46.9523 189.499 39.5004 185.942 33.7537C184.166 30.8846 182.395 28.0896 180.963 25.8259C179.438 23.4139 178.231 21.5025 177.1 19.6696C172.318 11.9183 172.352 10.8941 172.837 12.4587L-18.1936 71.6805C-10.9738 94.9693 -0.064064 113.416 6.89031 124.687C15.7942 139.118 17.5506 141.248 20.198 146.431L198.31 55.4576ZM172.84 12.4692C174.276 17.1006 176.138 26.0801 174.453 37.7138C172.695 49.8604 167.8 59.8091 162.578 66.6972L3.20049 -54.1278C-27.2256 -13.9932 -30.3969 32.3012 -18.1969 71.67L172.84 12.4692ZM162.637 66.6205C160.71 69.1672 158.982 71.1765 157.742 72.5557C156.6 73.8255 155.721 74.7252 155.626 74.822C155.555 74.8951 155.52 74.9304 155.657 74.7908C155.752 74.6946 155.984 74.4588 156.233 74.2043C156.777 73.6476 157.529 72.8722 158.418 71.9296L12.9083 -65.282C12.9101 -65.284 13.9017 -66.3135 12.3218 -64.6907C11.4605 -63.806 7.42783 -59.7152 3.14242 -54.0511L162.637 66.6205ZM-13.4199 -10.189C-13.6293 -8.6535 -13.6836 -8.36856 -14.0572 -5.76133C-14.3385 -3.79861 -14.7961 -0.52604 -15.1603 3.27958L183.93 22.335C183.838 23.292 183.76 23.727 183.92 22.6123C184.014 21.9561 184.074 21.5537 184.242 20.4004C184.383 19.4292 184.558 18.2096 184.746 16.8365L-13.4199 -10.189ZM-15.1622 3.29945C-18.991 43.3865 -7.10059 76.0708 0.405174 94.4891L185.617 19.0123C184.721 16.8139 184.185 15.3529 183.859 14.3784C183.54 13.4243 183.512 13.202 183.59 13.5529C183.674 13.9299 183.88 14.9624 184 16.5237C184.123 18.1165 184.145 20.0875 183.932 22.3151L-15.1622 3.29945ZM0.403252 94.4844C5.21184 106.286 8.78563 116.662 14.8727 132.965L202.238 63.0072C198.049 51.786 191.891 34.4114 185.618 19.017L0.403252 94.4844ZM12.8976 127.133C11.9493 124.021 11.2015 120.852 10.6585 117.647L207.849 84.2421C206.967 79.0366 205.753 73.8917 204.213 68.8388L12.8976 127.133Z" fill="#E73352" mask="url(#path-5-inside-3_302_100)"/>
<mask id="path-7-inside-4_302_100" fill="white">
<path d="M142 102.502C132.239 112.435 128.369 125.148 121.253 135.805C119.369 128.931 117.864 122.142 115.625 115.604C113.141 108.355 112.083 110.423 118.815 105.255C124.921 100.567 131.814 100.744 138.812 101C139.811 101.036 140.78 101.903 142 102.502Z"/>
</mask>
<path d="M142 102.502C132.239 112.435 128.369 125.148 121.253 135.805C119.369 128.931 117.864 122.142 115.625 115.604C113.141 108.355 112.083 110.423 118.815 105.255C124.921 100.567 131.814 100.744 138.812 101C139.811 101.036 140.78 101.903 142 102.502Z" fill="white"/>
<path d="M142 102.502L213.324 172.595L310.386 73.8268L186.103 12.7533L142 102.502ZM121.253 135.805L24.8087 162.235L82.7265 373.577L204.416 191.337L121.253 135.805ZM115.625 115.604L210.229 83.2007L210.227 83.1954L115.625 115.604ZM118.815 105.255L179.707 184.578L179.716 184.571L118.815 105.255ZM138.812 101L135.165 200.933L135.2 200.935L135.234 200.936L138.812 101ZM70.6763 32.4101C55.6321 47.7186 46.853 63.4978 42.4593 71.7107C41.3316 73.8187 40.2923 75.8263 39.5754 77.2103C38.7625 78.7797 38.3002 79.671 37.8672 80.4838C37.0054 82.1014 37.2078 81.5928 38.0892 80.2729L204.416 191.337C208.856 184.689 212.21 178.595 214.381 174.521C215.464 172.488 216.487 170.507 217.166 169.197C217.941 167.701 218.399 166.822 218.81 166.054C220.57 162.763 218.607 167.219 213.324 172.595L70.6763 32.4101ZM217.697 109.375C217.602 109.031 213.762 93.5149 210.229 83.2007L21.0201 148.008C20.9874 147.912 21.2117 148.558 21.8914 151.13C22.2468 152.475 22.5587 153.695 23.0784 155.705C23.5452 157.51 24.1397 159.794 24.8087 162.235L217.697 109.375ZM210.227 83.1954C209.082 79.8539 205.997 71.8819 207.646 76.2356C207.8 76.6426 210.175 82.6664 211.813 90.8334C213.699 100.23 215.396 115.972 210.607 134.578C205.794 153.274 196.606 166.446 189.918 174.201C184.028 181.03 178.584 185.331 177.55 186.157C176.214 187.224 175.06 188.061 176.164 187.243C176.761 186.801 178.108 185.806 179.707 184.578L57.9233 25.9314C57.8391 25.996 57.7458 26.067 57.1218 26.5292C57.0048 26.6159 54.8489 28.1949 52.7037 29.909C50.8616 31.3809 44.8026 36.231 38.4662 43.5778C31.332 51.8496 21.8667 65.5069 16.9208 84.7207C11.9982 103.844 13.7065 120.136 15.7218 130.18C17.4905 138.994 20.1143 145.763 20.6117 147.076C20.9239 147.9 22.3234 151.454 21.6563 149.751C21.5691 149.528 21.3167 148.874 21.022 148.013L210.227 83.1954ZM179.716 184.571C166.675 194.584 153.112 198.682 143.47 200.143C136.138 201.255 130.43 200.76 135.165 200.933L142.459 1.06631C139.522 0.959137 96.3206 -3.55124 57.9136 25.9389L179.716 184.571ZM135.234 200.936C121.581 200.447 110.757 197.212 103.855 194.574C97.2068 192.033 92.408 189.333 90.7894 188.41C89.9362 187.923 87.4223 186.421 89.8161 187.852C90.8761 188.485 93.9145 190.295 97.8967 192.252L186.103 12.7533C189.475 14.4104 191.935 15.8864 192.439 16.1878C194.277 17.2865 191.23 15.4524 189.857 14.6696C187.719 13.4505 182.414 10.4896 175.266 7.75697C167.863 4.92721 156.543 1.57053 142.39 1.06382L135.234 200.936Z" fill="#E73352" mask="url(#path-7-inside-4_302_100)"/>
</g>
<mask id="path-9-inside-5_302_100" fill="white">
<path d="M51.1459 81.6339C53.4971 92.8327 59.3714 102.16 66.6854 110.784C66.4301 110.248 66.1969 109.701 65.9165 109.179C61.6665 101.283 57.6807 93.2512 55.7686 84.422C54.0875 77.0107 54.5831 69.2715 57.1958 62.1351C57.4985 61.3649 57.9556 60.6647 58.5389 60.0776C59.4643 75.0519 65.746 87.892 73.1752 100.303L73.7472 100.082C72.3723 96.913 70.9192 93.7729 69.6366 90.562C66.3696 82.3911 63.1424 74.1855 62.493 65.2855C61.9269 59.0289 63.5436 52.7691 67.0685 47.5689C67.5267 47.0152 68.0197 46.4912 68.5444 46C68.278 48.2073 67.6817 49.9113 67.954 51.4669C68.9134 56.9545 69.3724 62.7299 71.503 67.7688C75.0932 76.263 79.7963 84.2877 84.0737 92.4911C87.6359 99.3203 91.4092 106.054 93.1707 113.653C95.319 122.925 95.1064 131.97 89.6919 140.164C85.9916 145.764 80.7328 148.965 73.7272 148.4C72.1899 148.174 70.6669 147.859 69.1658 147.458C70.0979 146.474 70.599 145.938 71.1067 145.408C73.3833 143.031 73.9353 140.823 72.2468 138C69.537 133.468 66.4397 129.171 63.6221 124.7C59.8068 118.649 55.9951 112.584 52.3746 106.412C47.9726 98.91 47.8154 90.8978 50.0662 82.7018C50.1993 82.3557 50.3682 82.0245 50.5703 81.7136L51.1459 81.6339Z"/>
</mask>
<path d="M51.1459 81.6339C53.4971 92.8327 59.3714 102.16 66.6854 110.784C66.4301 110.248 66.1969 109.701 65.9165 109.179C61.6665 101.283 57.6807 93.2512 55.7686 84.422C54.0875 77.0107 54.5831 69.2715 57.1958 62.1351C57.4985 61.3649 57.9556 60.6647 58.5389 60.0776C59.4643 75.0519 65.746 87.892 73.1752 100.303L73.7472 100.082C72.3723 96.913 70.9192 93.7729 69.6366 90.562C66.3696 82.3911 63.1424 74.1855 62.493 65.2855C61.9269 59.0289 63.5436 52.7691 67.0685 47.5689C67.5267 47.0152 68.0197 46.4912 68.5444 46C68.278 48.2073 67.6817 49.9113 67.954 51.4669C68.9134 56.9545 69.3724 62.7299 71.503 67.7688C75.0932 76.263 79.7963 84.2877 84.0737 92.4911C87.6359 99.3203 91.4092 106.054 93.1707 113.653C95.319 122.925 95.1064 131.97 89.6919 140.164C85.9916 145.764 80.7328 148.965 73.7272 148.4C72.1899 148.174 70.6669 147.859 69.1658 147.458C70.0979 146.474 70.599 145.938 71.1067 145.408C73.3833 143.031 73.9353 140.823 72.2468 138C69.537 133.468 66.4397 129.171 63.6221 124.7C59.8068 118.649 55.9951 112.584 52.3746 106.412C47.9726 98.91 47.8154 90.8978 50.0662 82.7018C50.1993 82.3557 50.3682 82.0245 50.5703 81.7136L51.1459 81.6339Z" fill="white"/>
<path d="M51.1459 81.6339L149.012 61.0869L129.843 -30.2173L37.4298 -17.4209L51.1459 81.6339ZM66.6854 110.784L-9.57962 175.465L156.958 67.7617L66.6854 110.784ZM65.9165 109.179L154 61.8358L153.986 61.8105L153.972 61.7852L65.9165 109.179ZM55.7686 84.422L153.503 63.2561L153.399 62.7784L153.291 62.3019L55.7686 84.422ZM57.1958 62.1351L-35.8748 25.5584L-36.3047 26.6523L-36.7088 27.756L57.1958 62.1351ZM58.5389 60.0776L158.348 53.9093L144.609 -168.413L-12.396 -10.4081L58.5389 60.0776ZM73.1752 100.303L-12.6276 151.664L30.6645 223.988L109.272 193.561L73.1752 100.303ZM73.7472 100.082L109.844 193.34L206.913 155.767L165.485 60.2804L73.7472 100.082ZM69.6366 90.562L162.502 53.4671L162.496 53.4515L162.49 53.4359L69.6366 90.562ZM62.493 65.2855L162.228 58.008L162.165 57.1408L162.086 56.2748L62.493 65.2855ZM67.0685 47.5689L-9.97183 -16.1868L-13.0224 -12.5006L-15.7071 -8.53996L67.0685 47.5689ZM68.5444 46L167.824 57.9826L200.737 -214.714L0.206585 -27.0064L68.5444 46ZM67.954 51.4669L166.46 34.2456L166.458 34.235L166.456 34.2244L67.954 51.4669ZM71.503 67.7688L163.613 28.8362L163.608 28.8251L71.503 67.7688ZM84.0737 92.4911L-4.59678 138.725L-4.59311 138.732L-4.58944 138.739L84.0737 92.4911ZM93.1707 113.653L190.59 91.0818L190.588 91.0727L93.1707 113.653ZM89.6919 140.164L173.123 195.294L173.124 195.292L89.6919 140.164ZM73.7272 148.4L59.178 247.336L62.4242 247.814L65.6947 248.077L73.7272 148.4ZM69.1658 147.458L-3.42518 78.6788L-118.975 200.633L43.3168 244.059L69.1658 147.458ZM71.1067 145.408L-1.10148 76.2269L-1.12295 76.2493L-1.14441 76.2717L71.1067 145.408ZM72.2468 138L-13.58 189.32L-13.5776 189.324L72.2468 138ZM63.6221 124.7L148.222 71.3817L148.217 71.3742L148.213 71.3668L63.6221 124.7ZM52.3746 106.412L138.628 55.813L138.624 55.8048L52.3746 106.412ZM50.0662 82.7018L-43.2708 46.8102L-45.0504 51.4383L-46.3635 56.2197L50.0662 82.7018ZM50.5703 81.7136L36.8542 -17.3412L-8.39154 -11.0761L-33.2806 27.2249L50.5703 81.7136ZM-46.7205 102.181C-39.6181 136.01 -22.4816 160.252 -9.57962 175.465L142.951 46.103C141.224 44.0676 146.612 49.656 149.012 61.0869L-46.7205 102.181ZM156.958 67.7617C157.075 68.0086 157.167 68.2051 157.224 68.3274C157.254 68.3898 157.276 68.4388 157.291 68.4698C157.298 68.4856 157.304 68.4978 157.307 68.5058C157.311 68.5136 157.313 68.5182 157.313 68.5182C157.377 68.6578 157.136 68.1329 156.968 67.7712C156.572 66.9209 155.497 64.6227 154 61.8358L-22.1666 156.522C-22.8063 155.332 -23.3093 154.332 -23.6588 153.619C-24.0027 152.918 -24.2517 152.386 -24.3469 152.181C-24.3966 152.074 -24.4284 152.005 -24.4198 152.024C-24.4153 152.034 -24.4101 152.045 -24.3911 152.086C-24.3758 152.12 -24.3487 152.178 -24.319 152.243C-24.2127 152.474 -23.9341 153.078 -23.5868 153.806L156.958 67.7617ZM153.972 61.7852C153.147 60.2517 152.618 59.2361 152.24 58.4803C151.872 57.7452 151.762 57.4825 151.797 57.5655C151.86 57.7108 152.75 59.7793 153.503 63.2561L-41.9658 105.588C-36.8367 129.271 -26.7703 147.969 -22.1394 156.573L153.972 61.7852ZM153.291 62.3019C155.872 73.6787 155.111 85.559 151.1 96.5142L-36.7088 27.756C-45.945 52.984 -47.6968 80.3427 -41.7542 106.542L153.291 62.3019ZM150.266 98.7118C145.58 110.636 138.504 121.476 129.474 130.563L-12.396 -10.4081C-22.5928 -0.14629 -30.5831 12.0933 -35.8748 25.5584L150.266 98.7118ZM-41.2707 66.246C-38.8223 105.863 -22.1843 135.698 -12.6276 151.664L158.978 48.943C157.803 46.9806 157.107 45.7208 156.687 44.9084C156.278 44.1183 156.271 44.021 156.451 44.479C156.642 44.9629 157.05 46.0842 157.446 47.7472C157.85 49.4416 158.201 51.5289 158.348 53.9093L-41.2707 66.246ZM109.272 193.561L109.844 193.34L37.65 6.82422L37.0781 7.0456L109.272 193.561ZM165.485 60.2804C164.992 59.1449 164.525 58.0853 164.154 57.2485C163.741 56.315 163.488 55.7443 163.207 55.105C162.951 54.5227 162.782 54.1313 162.659 53.843C162.539 53.5613 162.496 53.4517 162.502 53.4671L-23.2287 127.657C-21.2583 132.59 -18.048 139.751 -17.9907 139.883L165.485 60.2804ZM162.49 53.4359C161.658 51.3557 161.21 50.2192 160.857 49.2804C160.534 48.4198 160.505 48.2836 160.606 48.6098C160.804 49.2485 161.841 52.7124 162.228 58.008L-37.2418 72.563C-35.2935 99.2633 -25.7257 121.412 -23.2162 127.688L162.49 53.4359ZM162.086 56.2748C163.601 73.0154 159.275 89.7642 149.844 103.678L-15.7071 -8.53996C-32.1881 15.7739 -39.7469 45.0423 -37.1002 74.2963L162.086 56.2748ZM144.109 111.325C141.865 114.036 139.451 116.602 136.882 119.006L0.206585 -27.0064C-3.41177 -23.6194 -6.81147 -20.0056 -9.97183 -16.1868L144.109 111.325ZM-30.7351 34.0174C-30.4626 31.7599 -30.1621 30.1027 -30.1129 29.8298C-29.8555 28.4011 -30.3982 31.3652 -30.6109 32.6506C-30.9549 34.7295 -31.6656 39.2769 -31.9674 45.0021C-32.2802 50.9354 -32.2227 59.1435 -30.5482 68.7095L166.456 34.2244C167.995 43.0125 168.025 50.4242 167.755 55.5316C167.497 60.4308 166.901 64.1225 166.705 65.3051C166.595 65.9741 166.507 66.4426 166.523 66.3568C166.538 66.2777 166.53 66.3221 166.575 66.0743C166.606 65.9067 166.657 65.628 166.716 65.3035C166.943 64.0416 167.418 61.3438 167.824 57.9826L-30.7351 34.0174ZM-30.5519 68.6883C-30.568 68.5963 -30.5553 68.6632 -30.5011 69.0095C-30.4389 69.4065 -30.3791 69.8026 -30.2542 70.6252C-30.0556 71.934 -29.6448 74.6612 -29.1024 77.6485C-28.0496 83.448 -25.8176 94.378 -20.6023 106.713L163.608 28.8251C165.227 32.6541 166.207 35.8559 166.782 38.0053C167.349 40.1205 167.62 41.589 167.681 41.9238C167.722 42.1514 167.705 42.0909 167.482 40.616C167.395 40.0467 167.245 39.0519 167.09 38.063C166.927 37.0234 166.716 35.7094 166.46 34.2456L-30.5519 68.6883ZM-20.607 106.701C-14.9349 120.121 -5.77896 136.457 -4.59678 138.725L172.744 46.2574C165.372 32.118 165.121 32.405 163.613 28.8362L-20.607 106.701ZM-4.58944 138.739C-4.06374 139.747 -3.50341 140.811 -3.12688 141.529C-2.70176 142.339 -2.39272 142.93 -2.12367 143.452C-1.57673 144.512 -1.44983 144.795 -1.50407 144.677C-1.57467 144.524 -1.96556 143.668 -2.46964 142.282C-2.98297 140.871 -3.64664 138.822 -4.24651 136.234L190.588 91.0727C185.28 68.1736 173.876 48.4265 172.737 46.2433L-4.58944 138.739ZM-4.24863 136.225C-4.87524 133.52 -6.1939 126.578 -5.19804 116.986C-4.11668 106.571 -0.518551 95.295 6.2598 85.0364L173.124 195.292C199.109 155.967 196.274 115.614 190.59 91.0818L-4.24863 136.225ZM6.26085 85.0348C11.5377 77.0491 20.7826 66.4984 35.512 58.5614C50.9142 50.2618 67.2913 47.5574 81.7597 48.7233L65.6947 248.077C115.138 252.061 152.953 225.819 173.123 195.294L6.26085 85.0348ZM88.2764 49.4643C90.5479 49.7983 92.7978 50.2632 95.0148 50.8564L43.3168 244.059C48.536 245.456 53.8318 246.55 59.178 247.336L88.2764 49.4643ZM141.757 216.237C142.296 215.667 142.733 215.204 143 214.921C143.143 214.771 143.227 214.682 143.289 214.616C143.346 214.556 143.363 214.538 143.358 214.544L-1.14441 76.2717C-1.64684 76.7968 -2.09737 77.2737 -2.4096 77.6043C-2.75318 77.9682 -3.03253 78.2644 -3.42518 78.6788L141.757 216.237ZM143.315 214.588C151.315 206.239 166.621 187.783 171.65 159.203C177.125 128.095 167.55 102.526 158.071 86.6757L-13.5776 189.324C-21.3676 176.298 -30.3741 153.244 -25.323 124.54C-20.7166 98.3641 -6.82468 82.2005 -1.10148 76.2269L143.315 214.588ZM158.074 86.6799C155.372 82.1609 152.751 78.215 151.2 75.8876C149.269 72.9879 148.765 72.2428 148.222 71.3817L-20.9779 178.018C-18.7029 181.628 -16.2495 185.267 -15.2505 186.766C-14.5997 187.744 -14.202 188.348 -13.9007 188.815C-13.6135 189.261 -13.5346 189.396 -13.58 189.32L158.074 86.6799ZM148.213 71.3668C144.33 65.208 141.329 60.417 138.628 55.813L-33.8792 157.011C-29.339 164.751 -24.7161 172.089 -20.9684 178.033L148.213 71.3668ZM138.624 55.8048C144.37 65.5989 147.6 76.4578 148.425 87.0683C149.205 97.1083 147.688 104.842 146.496 109.184L-46.3635 56.2197C-53.5699 82.4604 -55.614 119.969 -33.8744 157.02L138.624 55.8048ZM143.403 118.593C141.033 124.758 138.023 130.66 134.421 136.202L-33.2806 27.2249C-37.2861 33.3888 -40.634 39.9532 -43.2708 46.8102L143.403 118.593ZM64.2863 180.769L64.8619 180.689L37.4298 -17.4209L36.8542 -17.3412L64.2863 180.769Z" fill="#E73352" mask="url(#path-9-inside-5_302_100)"/>
<mask id="path-11-inside-6_302_100" fill="white">
<path d="M33.7514 190.392C31.0363 185.452 30.1589 180.746 31.8976 175.711C33.5713 170.864 37.2029 167.646 41.7127 164.616C38.0626 163.645 35.9697 166.503 32.8355 166.83C33.2134 164.924 34.0203 163.129 35.1951 161.581C36.3699 160.033 37.8818 158.772 39.6161 157.896C42.8462 156.192 46.449 155.192 50.5219 153.641L44.0668 151.406C45.4518 150.307 46.914 149.31 48.4422 148.421C52.3646 146.502 56.4663 146.881 60.5178 147.987C64.1811 148.986 67.7499 150.807 71.4524 151.098C83.3663 152.033 91.47 145.831 94.6152 134.236C96.7797 126.266 96.0912 118.363 94.4175 110.447C94.3237 110.004 94.2352 109.561 94.1075 108.93C94.461 109.044 94.7348 109.047 94.8012 109.166C100.438 119.147 103.32 129.548 99.3103 140.877C96.7347 148.155 91.5851 153.297 85.2887 157.521C78.0787 162.357 69.7174 164.522 61.9096 167.966C56.2272 170.475 50.5765 173.108 45.1627 176.132C40.0311 178.919 36.186 183.594 34.4421 189.167C34.243 189.592 34.0121 190.002 33.7514 190.392Z"/>
</mask>
<path d="M33.7514 190.392C31.0363 185.452 30.1589 180.746 31.8976 175.711C33.5713 170.864 37.2029 167.646 41.7127 164.616C38.0626 163.645 35.9697 166.503 32.8355 166.83C33.2134 164.924 34.0203 163.129 35.1951 161.581C36.3699 160.033 37.8818 158.772 39.6161 157.896C42.8462 156.192 46.449 155.192 50.5219 153.641L44.0668 151.406C45.4518 150.307 46.914 149.31 48.4422 148.421C52.3646 146.502 56.4663 146.881 60.5178 147.987C64.1811 148.986 67.7499 150.807 71.4524 151.098C83.3663 152.033 91.47 145.831 94.6152 134.236C96.7797 126.266 96.0912 118.363 94.4175 110.447C94.3237 110.004 94.2352 109.561 94.1075 108.93C94.461 109.044 94.7348 109.047 94.8012 109.166C100.438 119.147 103.32 129.548 99.3103 140.877C96.7347 148.155 91.5851 153.297 85.2887 157.521C78.0787 162.357 69.7174 164.522 61.9096 167.966C56.2272 170.475 50.5765 173.108 45.1627 176.132C40.0311 178.919 36.186 183.594 34.4421 189.167C34.243 189.592 34.0121 190.002 33.7514 190.392Z" fill="white"/>
<path d="M33.7514 190.392L-53.8852 238.556L25.4206 382.855L116.898 245.949L33.7514 190.392ZM31.8976 175.711L126.42 208.355L126.421 208.351L31.8976 175.711ZM41.7127 164.616L97.4739 247.627L280.509 124.675L67.4254 67.9786L41.7127 164.616ZM32.8355 166.83L-65.2559 147.386L-91.6196 280.386L43.2333 266.288L32.8355 166.83ZM39.6161 157.896L84.7385 247.137L85.5101 246.747L86.2748 246.343L39.6161 157.896ZM50.5219 153.641L86.1144 247.093L343.215 149.172L83.2443 59.1465L50.5219 153.641ZM44.0668 151.406L-18.0821 73.0636L-160.806 186.287L11.3443 245.901L44.0668 151.406ZM48.4422 148.421L4.50002 58.5927L1.27308 60.1712L-1.83227 61.9773L48.4422 148.421ZM60.5178 147.987L34.1941 244.46L34.2028 244.462L60.5178 147.987ZM71.4524 151.098L63.6034 250.79L63.6159 250.791L63.6283 250.792L71.4524 151.098ZM94.6152 134.236L-1.88933 108.028L-1.89319 108.042L-1.89705 108.056L94.6152 134.236ZM94.4175 110.447L192.255 89.761L192.252 89.7499L192.25 89.7388L94.4175 110.447ZM94.1075 108.93L124.715 13.7293L-37.7507 -38.5039L-3.9062 128.762L94.1075 108.93ZM94.8012 109.166L7.51367 157.96L7.61984 158.15L7.72684 158.339L94.8012 109.166ZM99.3103 140.877L5.04017 107.513L5.03914 107.516L99.3103 140.877ZM85.2887 157.521L140.992 240.571L141.001 240.564L85.2887 157.521ZM61.9096 167.966L21.5503 76.4722L21.5333 76.4797L21.5163 76.4872L61.9096 167.966ZM45.1627 176.132L92.8854 264.011L93.4144 263.723L93.94 263.43L45.1627 176.132ZM34.4421 189.167L124.989 231.608L127.859 225.485L129.879 219.031L34.4421 189.167ZM121.388 142.227C124.194 147.332 128.402 156.542 130.176 169.136C132.064 182.532 130.666 196.059 126.42 208.355L-62.6244 143.068C-76.0374 181.906 -66.1069 216.319 -53.8852 238.556L121.388 142.227ZM126.421 208.351C117.152 235.194 97.8798 247.354 97.4739 247.627L-14.0485 81.6062C-23.474 87.9377 -50.009 106.534 -62.6257 143.071L126.421 208.351ZM67.4254 67.9786C51.4741 63.7344 35.7936 63.5191 21.5226 66.0861C8.47121 68.4338 -1.18703 72.7584 -4.88159 74.4664C-6.54091 75.2335 -8.38886 76.1493 -7.90816 75.914C-7.90088 75.9104 -7.80742 75.8647 -7.66726 75.797C-7.52414 75.7279 -7.30306 75.6218 -7.02546 75.4912C-6.48087 75.235 -5.61085 74.8333 -4.51296 74.3606C-0.283525 72.5397 9.35569 68.74 22.4378 67.3723L43.2333 266.288C57.8825 264.757 68.9586 260.477 74.576 258.059C77.303 256.884 79.487 255.81 80.0266 255.545C81.187 254.977 80.0166 255.556 79.0429 256.006C76.7196 257.08 68.4649 260.852 56.9304 262.927C44.1764 265.221 30.1262 265.013 15.9999 261.254L67.4254 67.9786ZM130.927 186.274C128.353 199.259 122.856 211.488 114.854 222.034L-44.4633 101.128C-54.8158 114.77 -61.9263 130.589 -65.2559 147.386L130.927 186.274ZM114.854 222.034C106.851 232.578 96.5524 241.163 84.7385 247.137L-5.50642 68.6546C-20.7889 76.3817 -34.1111 87.487 -44.4633 101.128L114.854 222.034ZM86.2748 246.343C83.8806 247.606 81.9143 248.477 80.6654 248.999C80.0361 249.262 79.5449 249.454 79.2413 249.571C78.9417 249.686 78.772 249.747 78.8 249.737C78.8379 249.723 78.9724 249.675 79.3266 249.55C79.5033 249.488 79.6865 249.423 79.9386 249.335C80.1728 249.253 80.4657 249.15 80.7722 249.042C81.3874 248.826 82.1812 248.544 83.0645 248.225C83.9565 247.902 84.9861 247.522 86.1144 247.093L14.9294 60.1897C15.1039 60.1232 15.0564 60.1454 14.3354 60.3993C13.9951 60.5191 12.1632 61.1579 10.7058 61.6856C7.54177 62.8313 0.716219 65.355 -7.04269 69.4481L86.2748 246.343ZM83.2443 59.1465L76.7892 56.9112L11.3443 245.901L17.7994 248.136L83.2443 59.1465ZM106.216 229.748C103.842 231.631 101.336 233.341 98.7168 234.864L-1.83227 61.9773C-7.50787 65.2781 -12.9385 68.9831 -18.0821 73.0636L106.216 229.748ZM92.3845 238.249C64.2512 252.011 39.6073 245.937 34.1941 244.46L86.8414 51.5136C73.3253 47.8256 40.478 40.9929 4.50002 58.5927L92.3845 238.249ZM34.2028 244.462C32.9499 244.121 31.9716 243.818 31.3627 243.623C31.0518 243.523 30.8087 243.442 30.6509 243.389C30.4945 243.336 30.3998 243.303 30.3926 243.301C30.3891 243.3 30.4347 243.316 30.5781 243.366C30.7859 243.44 30.8487 243.462 31.2027 243.588C31.7104 243.768 32.6747 244.109 33.7757 244.484C37.4052 245.718 48.873 249.63 63.6034 250.79L79.3013 51.4066C85.181 51.8695 89.8576 52.8448 92.8673 53.5945C95.7932 54.3233 97.8318 55.0187 98.1651 55.1321C98.3596 55.1982 98.4181 55.2204 98.0197 55.0792C97.7932 54.9989 96.9231 54.689 96.1097 54.4061C94.4324 53.8225 91.0199 52.6534 86.8328 51.5113L34.2028 244.462ZM63.6283 250.792C89.1624 252.795 119.141 247.42 145.684 227.84C171.687 208.659 185.074 182.731 191.128 160.416L-1.89705 108.056C1.01081 97.3364 8.77337 80.3068 26.9597 66.8915C45.686 53.078 65.6562 50.3357 79.2764 51.4046L63.6283 250.792ZM191.12 160.444C199.229 130.584 195.424 104.75 192.255 89.761L-3.41967 131.132C-3.24123 131.976 -5.66972 121.948 -1.88933 108.028L191.12 160.444ZM192.25 89.7388C192.28 89.8801 192.293 89.9445 192.269 89.8291C192.257 89.7701 192.241 89.6917 192.215 89.5621C192.192 89.4498 192.156 89.2706 192.121 89.0981L-3.9062 128.762C-3.84696 129.055 -3.62909 130.143 -3.41497 131.155L192.25 89.7388ZM63.5002 204.131C67.9481 205.561 77.4425 207.818 70.6398 206.142C69.7768 205.93 61.9222 204.109 52.709 199.844C43.5554 195.608 22.0874 184.031 7.51367 157.96L182.089 60.3712C167.482 34.2411 145.955 22.6192 136.72 18.3448C127.426 14.0427 119.468 12.1918 118.484 11.9494C111.44 10.2138 120.62 12.4129 124.715 13.7293L63.5002 204.131ZM7.72684 158.339C7.05334 157.147 3.84333 151.289 2.17832 141.802C0.315722 131.188 0.940506 119.097 5.04017 107.513L193.58 174.241C211.069 124.827 194.893 83.0428 181.876 59.9918L7.72684 158.339ZM5.03914 107.516C12.2564 87.1217 25.8632 76.9696 29.5763 74.4785L141.001 240.564C157.307 229.625 181.213 209.188 193.581 174.238L5.03914 107.516ZM29.5855 74.4724C32.3329 72.6296 34.5715 71.4561 35.8376 70.8383C37.0352 70.2539 37.6144 70.0482 36.9041 70.3304C36.5652 70.465 36.0813 70.6528 35.2495 70.9695C34.8263 71.1307 34.4142 71.2868 33.8683 71.4939C33.3578 71.6876 32.7525 71.9175 32.1201 72.1593C29.7013 73.0844 25.8427 74.5787 21.5503 76.4722L102.269 259.46C101.88 259.631 101.995 259.564 103.565 258.963C104.38 258.651 107.983 257.297 110.743 256.201C116.962 253.73 128.584 248.893 140.992 240.571L29.5855 74.4724ZM21.5163 76.4872C14.8479 79.4317 5.86664 83.5378 -3.61464 88.8355L93.94 263.43C95.2864 262.677 97.6065 261.519 102.303 259.445L21.5163 76.4872ZM-2.55995 88.2545C-30.5307 103.444 -51.4891 128.927 -60.9945 159.304L129.879 219.031C123.861 238.262 110.593 254.394 92.8854 264.011L-2.55995 88.2545ZM-56.1052 146.727C-54.1712 142.601 -51.9284 138.625 -49.3956 134.835L116.898 245.949C119.952 241.378 122.657 236.584 124.989 231.608L-56.1052 146.727Z" fill="#E73352" mask="url(#path-11-inside-6_302_100)"/>
<mask id="path-13-inside-7_302_100" fill="white">
<path d="M96.3532 106.383C90.2627 94.4587 81.2808 84.1602 77.2522 71.1652C74.836 63.3685 75.6286 56.2942 80.5827 49.7594C80.9428 49.2834 81.3996 48.8812 82.2417 47.9883C81.931 50.2664 81.6402 51.9571 81.4771 53.6611C80.5916 62.933 83.1885 71.4847 86.6371 79.9471C89.9513 88.0811 92.8619 96.3811 95.9356 104.613C96.1124 105.194 96.2519 105.785 96.3532 106.383Z"/>
</mask>
<path d="M96.3532 106.383C90.2627 94.4587 81.2808 84.1602 77.2522 71.1652C74.836 63.3685 75.6286 56.2942 80.5827 49.7594C80.9428 49.2834 81.3996 48.8812 82.2417 47.9883C81.931 50.2664 81.6402 51.9571 81.4771 53.6611C80.5916 62.933 83.1885 71.4847 86.6371 79.9471C89.9513 88.0811 92.8619 96.3811 95.9356 104.613C96.1124 105.194 96.2519 105.785 96.3532 106.383Z" fill="white"/>
<path d="M77.2522 71.1652L-18.2665 100.766L-18.2632 100.776L77.2522 71.1652ZM80.5827 49.7594L160.272 110.172L160.301 110.134L160.33 110.095L80.5827 49.7594ZM82.2417 47.9883L181.325 61.501L223.471 -247.542L9.48702 -20.6176L82.2417 47.9883ZM81.4771 53.6611L-18.068 44.1334L-18.0689 44.1433L-18.0699 44.1533L81.4771 53.6611ZM86.6371 79.9471L179.245 42.2134L179.243 42.2087L86.6371 79.9471ZM95.9356 104.613L191.593 75.466L190.696 72.5198L189.618 69.6344L95.9356 104.613ZM185.409 60.896C182.088 54.3932 178.766 48.8756 176.391 45.0403C175.207 43.1268 174.038 41.2818 173.207 39.9679C172.282 38.5058 171.676 37.5443 171.134 36.6669C168.71 32.7374 170.929 35.6251 172.768 41.5543L-18.2632 100.776C-12.3965 119.7 -3.67167 134.235 0.924652 141.684C2.13847 143.652 3.31945 145.518 4.18359 146.884C5.14148 148.399 5.76315 149.382 6.34007 150.314C7.4887 152.169 7.57356 152.41 7.29741 151.87L185.409 60.896ZM172.771 41.5648C175.018 48.8149 177.152 60.2917 175.122 74.3168C173.017 88.8549 167.157 101.089 160.272 110.172L0.893677 -10.653C-26.2046 25.0919 -28.8435 66.6342 -18.2665 100.766L172.771 41.5648ZM160.33 110.095C158.342 112.722 156.55 114.808 155.238 116.267C154.025 117.616 153.067 118.599 152.884 118.787C152.768 118.905 152.686 118.988 152.774 118.9C152.818 118.854 152.997 118.672 153.19 118.475C153.622 118.033 154.249 117.387 154.996 116.594L9.48702 -20.6176C9.77171 -20.9195 10.9814 -22.1664 9.57919 -20.7262C8.89552 -20.0239 5.00005 -16.0806 0.835602 -10.5763L160.33 110.095ZM-16.8411 34.4755C-16.8614 34.6242 -16.8902 34.8281 -16.9453 35.2074C-16.974 35.4047 -17.1023 36.2798 -17.1845 36.8532C-17.3772 38.1976 -17.7585 40.9001 -18.068 44.1334L181.022 63.1888C180.944 64.0038 180.869 64.6252 180.826 64.9675C180.785 65.2856 180.763 65.4326 180.793 65.2268C180.806 65.13 180.825 64.9999 180.857 64.7808C180.883 64.6023 180.931 64.274 180.973 63.9849C181.065 63.3532 181.189 62.4915 181.325 61.501L-16.8411 34.4755ZM-18.0699 44.1533C-21.3037 78.012 -11.1578 104.952 -5.96862 117.686L179.243 42.2087C177.535 38.0177 182.487 47.8541 181.024 63.1689L-18.0699 44.1533ZM-5.97054 117.681C-3.38828 124.018 -1.76963 128.819 2.25269 139.592L189.618 69.6344C187.493 63.943 183.291 52.1439 179.245 42.2134L-5.97054 117.681ZM0.277626 133.76C-0.789513 130.258 -1.63098 126.693 -2.24206 123.085L194.949 89.6805C194.135 84.8769 193.014 80.129 191.593 75.466L0.277626 133.76Z" fill="#E73352" mask="url(#path-13-inside-7_302_100)"/>
<mask id="path-15-inside-8_302_100" fill="white">
<path d="M115.941 107.315C110.103 113.256 107.787 120.861 103.531 127.236C102.404 123.124 101.504 119.063 100.164 115.152C98.6787 110.816 98.0455 112.053 102.073 108.961C105.725 106.157 109.849 106.263 114.034 106.416C114.632 106.437 115.212 106.956 115.941 107.315Z"/>
</mask>
<path d="M115.941 107.315C110.103 113.256 107.787 120.861 103.531 127.236C102.404 123.124 101.504 119.063 100.164 115.152C98.6787 110.816 98.0455 112.053 102.073 108.961C105.725 106.157 109.849 106.263 114.034 106.416C114.632 106.437 115.212 106.956 115.941 107.315Z" fill="white"/>
<path d="M115.941 107.315L187.265 177.407L284.328 78.6392L160.045 17.5658L115.941 107.315ZM103.531 127.236L7.08685 153.666L65.0046 365.007L186.694 182.768L103.531 127.236ZM100.164 115.152L194.769 82.7485L194.767 82.7432L100.164 115.152ZM102.073 108.961L162.964 188.285L162.974 188.277L102.073 108.961ZM114.034 106.416L110.387 206.35L110.422 206.351L110.457 206.352L114.034 106.416ZM44.6177 37.2226C31.5347 50.5355 24.1249 64.0398 20.9676 69.9414C20.149 71.4716 19.4105 72.8991 18.9933 73.7045C18.4801 74.6954 18.3164 75.0096 18.188 75.2507C17.9354 75.7249 18.7711 74.0941 20.3673 71.7036L186.694 182.768C188.603 179.909 190.206 177.278 191.509 175.035C192.804 172.807 193.887 170.817 194.701 169.288C195.48 167.827 196.205 166.423 196.584 165.691C197.059 164.774 197.216 164.475 197.318 164.284C197.514 163.918 196.719 165.455 195.205 167.714C193.592 170.12 191.002 173.604 187.265 177.407L44.6177 37.2226ZM199.975 100.805C199.462 98.9344 199.764 99.9438 198.608 95.5667C197.862 92.7467 196.591 88.0681 194.769 82.7485L5.55975 147.556C5.07713 146.147 4.92533 145.454 5.24677 146.67C5.42297 147.337 5.56023 147.876 5.90273 149.2C6.1923 150.32 6.60703 151.915 7.08685 153.666L199.975 100.805ZM194.767 82.7432C193.872 80.1299 190.999 72.6522 192.786 77.37C193.009 77.9591 195.434 84.1325 197.099 92.4296C199.011 101.956 200.71 117.808 195.894 136.518C191.055 155.319 181.811 168.588 175.033 176.447C169.053 183.38 163.486 187.791 162.29 188.747C160.791 189.945 159.436 190.93 160.295 190.294C160.646 190.033 161.704 189.253 162.964 188.285L41.1809 29.6379C41.4349 29.4429 41.6308 29.2998 41.2521 29.5803C41.1379 29.6649 40.6522 30.024 40.1393 30.41C39.621 30.8001 38.6307 31.5504 37.4432 32.4992C35.7636 33.8413 29.8281 38.581 23.5814 45.8239C16.5368 53.9918 7.12719 67.5516 2.20812 86.6614C-2.68777 105.681 -0.981613 121.862 1.00764 131.776C2.75018 140.46 5.32398 147.079 5.75246 148.21C7.95005 154.013 5.71407 148.006 5.56156 147.561L194.767 82.7432ZM162.974 188.277C148.706 199.233 133.837 203.783 122.845 205.45C114.162 206.766 107.058 206.228 110.387 206.35L117.682 6.48257C117.556 6.478 77.1249 2.03901 41.1713 29.6453L162.974 188.277ZM110.457 206.352C96.7029 205.86 85.7793 202.6 78.7766 199.923C72.0279 197.344 67.1276 194.591 65.4046 193.609C64.447 193.063 61.8259 191.494 64.108 192.858C65.0564 193.425 67.9785 195.167 71.8382 197.064L160.045 17.5658C163.539 19.2831 166.115 20.8261 166.731 21.1942C168.681 22.3596 165.741 20.5922 164.472 19.8689C162.438 18.7093 157.236 15.8009 150.187 13.1067C142.885 10.3154 131.665 6.98318 117.612 6.48006L110.457 206.352Z" fill="#E73352" mask="url(#path-15-inside-8_302_100)"/>
<path d="M46.4761 229L49.5522 211.227L54.3618 211.239C55.8429 211.239 57.1165 211.609 58.1826 212.35C59.2568 213.082 60.034 214.099 60.5142 215.401C60.9943 216.695 61.1408 218.124 60.9536 219.686L60.8193 220.65C60.5752 222.286 60.034 223.739 59.1958 225.008C58.3657 226.27 57.2915 227.25 55.9731 227.95C54.6548 228.65 53.2062 229 51.6274 229H46.4761ZM52.1401 213.717L49.9185 226.534L51.7007 226.546C53.312 226.546 54.6466 226.038 55.7046 225.021C56.7707 223.995 57.4543 222.583 57.7554 220.785C57.967 219.548 58.0443 218.469 57.9873 217.55C57.9141 216.37 57.5682 215.446 56.9497 214.779C56.3394 214.111 55.4889 213.762 54.3984 213.729L52.1401 213.717ZM65.2383 229H62.3452L64.6401 215.792H67.5332L65.2383 229ZM65.0552 212.411C65.0552 211.963 65.2017 211.581 65.4946 211.263C65.7876 210.946 66.1823 210.779 66.6787 210.763C67.1507 210.746 67.5413 210.893 67.8506 211.202C68.168 211.503 68.3267 211.874 68.3267 212.313C68.3267 212.777 68.172 213.159 67.8628 213.46C67.5617 213.762 67.1751 213.92 66.7031 213.937C66.2393 213.953 65.8486 213.814 65.5312 213.521C65.2139 213.22 65.0552 212.85 65.0552 212.411ZM71.5615 229H68.6685L71.9277 210.25H74.8208L71.5615 229ZM77.8848 229H74.9917L77.2866 215.792H80.1797L77.8848 229ZM77.7017 212.411C77.7017 211.963 77.8481 211.581 78.1411 211.263C78.4341 210.946 78.8288 210.779 79.3252 210.763C79.7972 210.746 80.1878 210.893 80.4971 211.202C80.8145 211.503 80.9731 211.874 80.9731 212.313C80.9731 212.777 80.8185 213.159 80.5093 213.46C80.2082 213.762 79.8216 213.92 79.3496 213.937C78.8857 213.953 78.4951 213.814 78.1777 213.521C77.8604 213.22 77.7017 212.85 77.7017 212.411ZM86.332 225.204L90.5068 215.792H93.5952L87.0889 229H84.5742L82.1572 215.792H85.0625L86.332 225.204ZM101.908 218.502C101.534 218.421 101.155 218.38 100.773 218.38C99.5034 218.347 98.4943 218.872 97.7456 219.955L96.1587 229H93.2656L95.5483 215.792L98.2949 215.78L98.002 217.281C98.9053 216.085 99.9469 215.499 101.127 215.523C101.396 215.523 101.766 215.584 102.238 215.707L101.908 218.502ZM104.984 229H102.091L104.386 215.792H107.279L104.984 229ZM104.801 212.411C104.801 211.963 104.948 211.581 105.241 211.263C105.534 210.946 105.928 210.779 106.425 210.763C106.897 210.746 107.287 210.893 107.597 211.202C107.914 211.503 108.073 211.874 108.073 212.313C108.073 212.777 107.918 213.159 107.609 213.46C107.308 213.762 106.921 213.92 106.449 213.937C105.985 213.953 105.595 213.814 105.277 213.521C104.96 213.22 104.801 212.85 104.801 212.411ZM113.407 224.728L117.558 215.792H120.756L112.931 231.283C111.841 233.366 110.404 234.396 108.622 234.371C108.183 234.355 107.682 234.273 107.121 234.127L107.365 231.832L107.89 231.881C108.59 231.905 109.167 231.771 109.623 231.478C110.079 231.193 110.461 230.746 110.771 230.135L111.466 228.768L109.257 215.792H112.26L113.407 224.728ZM127.824 229C127.726 228.674 127.685 228.264 127.702 227.767C126.611 228.784 125.435 229.277 124.174 229.244C123.026 229.228 122.074 228.862 121.317 228.146C120.569 227.421 120.219 226.506 120.268 225.399C120.333 224.007 120.935 222.913 122.074 222.115C123.214 221.318 124.743 220.919 126.664 220.919L128.544 220.943L128.715 220.04C128.764 219.723 128.764 219.426 128.715 219.149C128.552 218.27 127.97 217.818 126.969 217.794C126.351 217.778 125.806 217.936 125.333 218.27C124.87 218.596 124.585 219.035 124.479 219.588L121.586 219.613C121.643 218.799 121.932 218.087 122.453 217.477C122.973 216.858 123.665 216.378 124.528 216.036C125.39 215.694 126.302 215.532 127.262 215.548C128.703 215.58 129.826 216.016 130.631 216.854C131.437 217.684 131.771 218.762 131.632 220.089L130.619 226.278L130.521 227.376C130.497 227.857 130.558 228.325 130.705 228.78L130.692 229H127.824ZM124.845 226.876C125.456 226.892 126.021 226.754 126.542 226.461C127.063 226.16 127.506 225.773 127.873 225.301L128.324 222.799L126.945 222.787C125.854 222.787 124.984 222.994 124.333 223.409C123.681 223.816 123.311 224.378 123.222 225.094C123.157 225.639 123.275 226.07 123.576 226.388C123.885 226.697 124.308 226.86 124.845 226.876Z" fill="#E73352"/>
</svg>
