<svg xmlns="http://www.w3.org/2000/svg" xmlns:xlink="http://www.w3.org/1999/xlink" width="24" height="24" viewBox="0 0 24 24">
  <defs>
    <clipPath id="clip-path">
      <rect id="Rectangle_2865" data-name="Rectangle 2865" width="24" height="24" transform="translate(3415 425)" fill="#fff"/>
    </clipPath>
  </defs>
  <g id="Mask_Group_173" data-name="Mask Group 173" transform="translate(-3415 -425)" clip-path="url(#clip-path)">
    <g id="Group_1905" data-name="Group 1905" transform="translate(36.445 -0.45)">
      <path id="Vector" d="M4.363-2.085A2.789,2.789,0,0,0,7.082,0,2.767,2.767,0,0,0,9.711-2.085h10.6a1.241,1.241,0,0,0,.247-.008.662.662,0,0,0,.544-.692.67.67,0,0,0-.618-.61,2,2,0,0,0-.222,0H9.711A2.778,2.778,0,0,0,8.7-4.919a2.737,2.737,0,0,0-4.26,1.335c-.049.157-.115.19-.272.19q-1.73-.012-3.461,0a.661.661,0,0,0-.643.931.654.654,0,0,0,.651.387H4.132A2.159,2.159,0,0,1,4.363-2.085Zm4.1-.651A1.426,1.426,0,0,1,7.033-1.319,1.446,1.446,0,0,1,5.616-2.744,1.433,1.433,0,0,1,7.049-4.169,1.421,1.421,0,0,1,8.466-2.736Z" transform="translate(3380 440.198)" fill="#3b3b3b"/>
      <path id="Vector-2" data-name="Vector" d="M5.934-2.085q2.583,0,5.166-.008a.312.312,0,0,1,.363.247A2.728,2.728,0,0,0,14.075,0a2.735,2.735,0,0,0,2.571-1.87.258.258,0,0,1,.3-.214c1.129.008,2.249.008,3.378,0a.992.992,0,0,0,.486-.124.568.568,0,0,0,.264-.659.63.63,0,0,0-.527-.511,1.462,1.462,0,0,0-.264-.016H16.926c-.14,0-.214-.025-.264-.181a2.732,2.732,0,0,0-2.612-1.9,2.719,2.719,0,0,0-2.6,1.912c-.058.173-.157.173-.288.173H.842a1.482,1.482,0,0,0-.33.025A.644.644,0,0,0,0-2.694a.639.639,0,0,0,.585.61c.091.008.181.008.264.008Q3.384-2.089,5.934-2.085Zm8.108-2.085a1.421,1.421,0,0,1,1.425,1.425A1.428,1.428,0,0,1,14.05-1.327a1.421,1.421,0,0,1-1.434-1.417A1.426,1.426,0,0,1,14.042-4.169Z" transform="translate(3380.019 445.899)" fill="#3b3b3b"/>
      <path id="Vector-3" data-name="Vector" d="M5.934-2.085q2.583,0,5.166-.008a.312.312,0,0,1,.363.247A2.728,2.728,0,0,0,14.075,0a2.735,2.735,0,0,0,2.571-1.87.258.258,0,0,1,.3-.214c1.129.008,2.249.008,3.378,0a.992.992,0,0,0,.486-.124.568.568,0,0,0,.264-.659.63.63,0,0,0-.527-.511,1.462,1.462,0,0,0-.264-.016H16.926c-.14,0-.214-.025-.264-.181a2.732,2.732,0,0,0-2.612-1.9,2.719,2.719,0,0,0-2.6,1.912c-.058.173-.157.173-.288.173H.842a1.482,1.482,0,0,0-.33.025A.644.644,0,0,0,0-2.694a.639.639,0,0,0,.585.61c.091.008.181.008.264.008Q3.384-2.089,5.934-2.085Zm8.108-2.085a1.421,1.421,0,0,1,1.425,1.425A1.428,1.428,0,0,1,14.05-1.327a1.421,1.421,0,0,1-1.434-1.417A1.426,1.426,0,0,1,14.042-4.169Z" transform="translate(3380.019 434.479)" fill="#3b3b3b"/>
    </g>
  </g>
</svg>
