<svg width="24" height="24" viewBox="0 0 24 24" fill="none" xmlns="http://www.w3.org/2000/svg">
<mask id="mask0_112_101" style="mask-type:alpha" maskUnits="userSpaceOnUse" x="0" y="0" width="24" height="24">
<rect width="24" height="24" fill="#C4C4C4"/>
</mask>
<g mask="url(#mask0_112_101)">
<path d="M19.6 2.40002H14.5256C13.564 2.40002 12.66 2.77369 11.98 3.45236L3.08241 12.3326C2.64242 12.7718 2.40002 13.3554 2.40002 13.979C2.40002 14.5994 2.64242 15.1831 3.08241 15.6222L8.35202 20.8815C8.79201 21.3207 9.37682 21.5626 10.0016 21.5626C10.6232 21.5626 11.208 21.3207 11.648 20.8815L20.5456 12.0013C21.2256 11.3226 21.6 10.4203 21.6 9.46065V4.39611C21.6 3.29587 20.7024 2.40002 19.6 2.40002ZM20.8 9.46065C20.8 10.2072 20.5088 10.909 19.9808 11.436L11.0824 20.317C10.5072 20.8911 9.49844 20.8951 8.91842 20.317L3.64802 15.0569C3.35924 14.7695 3.20001 14.3862 3.20001 13.9758C3.20001 13.5686 3.3592 13.1854 3.64802 12.8971L12.5456 4.01687C13.0752 3.48911 13.7776 3.19845 14.5256 3.19845H19.6C20.2616 3.19845 20.8 3.73579 20.8 4.39611V9.46065H20.8Z" fill="#757272"/>
<path d="M17.1999 4.79529C16.0976 4.79529 15.2 5.69114 15.2 6.79138C15.2 7.89162 16.0976 8.78747 17.1999 8.78747C18.3023 8.78747 19.1999 7.89165 19.1999 6.79138C19.1999 5.69114 18.3023 4.79529 17.1999 4.79529ZM17.1999 7.98904C16.5383 7.98904 15.9999 7.4517 15.9999 6.79138C15.9999 6.13105 16.5383 5.59372 17.1999 5.59372C17.8616 5.59372 18.3999 6.13105 18.3999 6.79138C18.3999 7.4517 17.8615 7.98904 17.1999 7.98904Z" fill="#757272"/>
</g>
</svg>
