<svg width="24" height="24" viewBox="0 0 24 24" fill="none" xmlns="http://www.w3.org/2000/svg">
<mask id="mask0_112_91" style="mask-type:alpha" maskUnits="userSpaceOnUse" x="0" y="0" width="24" height="24">
<rect width="24" height="24" fill="#C4C4C4"/>
</mask>
<g mask="url(#mask0_112_91)">
<path d="M16.253 11.576C15.957 11.9488 15.6245 12.2929 15.2426 12.6035C17.4227 13.854 18.8946 16.2051 18.8946 18.8936C18.8946 20.3463 15.7117 21.4842 11.6485 21.4842C7.58531 21.4842 4.40245 20.3463 4.40245 18.8936C4.40245 16.2051 5.8743 13.854 8.05444 12.6035C7.67255 12.2929 7.34 11.9488 7.04396 11.576C4.61611 13.1092 3 15.8161 3 18.8936C3 19.8259 3.51047 21.1251 5.94249 22.0205C7.45952 22.5791 9.48596 22.8867 11.6485 22.8867C13.8111 22.8867 15.8376 22.5791 17.3546 22.0205C19.7866 21.1251 20.2971 19.8259 20.2971 18.8936C20.297 15.8161 18.6809 13.1092 16.253 11.576Z" fill="#757272"/>
<path d="M11.6485 12.5002C14.3741 12.5002 16.4729 9.86556 16.4729 6.75013C16.4729 3.63326 14.373 1 11.6485 1C8.92283 1 6.82397 3.63465 6.82397 6.75008C6.82397 9.86695 8.92393 12.5002 11.6485 12.5002ZM11.6485 2.40245C13.5353 2.40245 15.0705 4.35278 15.0705 6.75008C15.0705 9.14738 13.5353 11.0977 11.6485 11.0977C9.76158 11.0977 8.22643 9.14738 8.22643 6.75008C8.22643 4.35278 9.76158 2.40245 11.6485 2.40245Z" fill="#757272"/>
</g>
</svg>
