<svg xmlns="http://www.w3.org/2000/svg" xmlns:xlink="http://www.w3.org/1999/xlink" width="18" height="18" viewBox="0 0 18 18">
  <defs>
    <clipPath id="clip-path">
      <rect id="Rectangle_75" data-name="Rectangle 75" width="18" height="18" transform="translate(368 236)" fill="#c4c4c4"/>
    </clipPath>
  </defs>
  <g id="Rectangle_75-2" data-name="Rectangle 75" transform="translate(-368 -236)" clip-path="url(#clip-path)">
    <g id="Group_74" data-name="Group 74" transform="translate(371 236.75)">
      <path id="Vector" d="M9.087,12.367H1.824a1.165,1.165,0,0,1-.8-.325,1.2,1.2,0,0,1-.367-.8L0,.247A.237.237,0,0,1,.014.154.234.234,0,0,1,.063.073.23.23,0,0,1,.139.019.227.227,0,0,1,.23,0H10.682a.227.227,0,0,1,.091.019.23.23,0,0,1,.076.054A.234.234,0,0,1,10.9.154a.237.237,0,0,1,.013.094l-.654,11a1.2,1.2,0,0,1-.367.8A1.165,1.165,0,0,1,9.087,12.367ZM.474.467l.639,10.753a.73.73,0,0,0,.223.483.709.709,0,0,0,.488.2H9.087a.709.709,0,0,0,.489-.2.73.73,0,0,0,.223-.484L10.439.467Z" transform="translate(0.727 4.001)"/>
      <path id="Vector-2" data-name="Vector" d="M12.134,2.91H.232a.231.231,0,0,1-.164-.069A.236.236,0,0,1,0,2.675V1.68A1.692,1.692,0,0,1,.487.493,1.652,1.652,0,0,1,1.66,0h9.046A1.652,1.652,0,0,1,11.88.493a1.692,1.692,0,0,1,.487,1.187v.995a.236.236,0,0,1-.068.166.231.231,0,0,1-.164.069ZM.464,2.44H11.9V1.68a1.219,1.219,0,0,0-.351-.856A1.191,1.191,0,0,0,10.706.47H1.66A1.191,1.191,0,0,0,.815.825a1.219,1.219,0,0,0-.351.856Z" transform="translate(0 1.455)"/>
      <path id="Vector-3" data-name="Vector" d="M4.5,2.182H.231a.221.221,0,0,1-.163-.074A.266.266,0,0,1,0,1.929v-.9A1.086,1.086,0,0,1,.276.3.9.9,0,0,1,.942,0H3.786a.9.9,0,0,1,.666.3,1.086,1.086,0,0,1,.276.73v.9a.266.266,0,0,1-.068.179A.221.221,0,0,1,4.5,2.182ZM.462,1.676h3.8V1.033A.553.553,0,0,0,4.126.661.46.46,0,0,0,3.786.507H.942A.46.46,0,0,0,.6.661a.553.553,0,0,0-.141.372Z" transform="translate(3.637)"/>
      <path id="Vector-4" data-name="Vector" d="M.182,7.638a.163.163,0,0,1-.129-.071A.287.287,0,0,1,0,7.4V.242A.287.287,0,0,1,.053.071.163.163,0,0,1,.182,0,.163.163,0,0,1,.31.071.287.287,0,0,1,.364.242V7.4a.287.287,0,0,1-.053.171A.163.163,0,0,1,.182,7.638Z" transform="translate(8.365 6.547)"/>
      <path id="Vector-5" data-name="Vector" d="M.182,7.638a.163.163,0,0,1-.129-.071A.287.287,0,0,1,0,7.4V.242A.287.287,0,0,1,.053.071.163.163,0,0,1,.182,0,.163.163,0,0,1,.31.071.287.287,0,0,1,.364.242V7.4a.287.287,0,0,1-.053.171A.163.163,0,0,1,.182,7.638Z" transform="translate(5.82 6.547)"/>
      <path id="Vector-6" data-name="Vector" d="M.182,7.638a.163.163,0,0,1-.129-.071A.287.287,0,0,1,0,7.4V.242A.287.287,0,0,1,.053.071.163.163,0,0,1,.182,0,.163.163,0,0,1,.31.071.287.287,0,0,1,.364.242V7.4a.287.287,0,0,1-.053.171A.163.163,0,0,1,.182,7.638Z" transform="translate(3.637 6.547)"/>
    </g>
  </g>
</svg>
