<svg xmlns="http://www.w3.org/2000/svg" xmlns:xlink="http://www.w3.org/1999/xlink" width="24" height="24" viewBox="0 0 24 24">
  <defs>
    <clipPath id="clip-path">
      <rect id="Rectangle_64" data-name="Rectangle 64" width="24" height="24" fill="#37474f"/>
    </clipPath>
  </defs>
  <g id="Rectangle_64-2" data-name="Rectangle 64" clip-path="url(#clip-path)">
    <path id="Vector" d="M13.315,14.1A8.041,8.041,0,0,1,2.387,2.311a8.041,8.041,0,0,1,11.716,11,1.453,1.453,0,0,1,.278.185q3.164,3.144,6.3,6.31a1.163,1.163,0,0,1,.3.533.515.515,0,0,1-.3.579.6.6,0,0,1-.661-.035,2.419,2.419,0,0,1-.255-.232L13.5,14.387C13.431,14.283,13.373,14.178,13.315,14.1Zm1.518-6.09a6.8,6.8,0,1,0-6.791,6.808A6.817,6.817,0,0,0,14.833,8.007Z" transform="translate(1 1)" fill="#37474f"/>
  </g>
</svg>
